<svg width="16" height="17" viewBox="0 0 16 17" fill="none" xmlns="http://www.w3.org/2000/svg">
<path d="M8.21404 1.21047L7.94572 1.44521C7.7679 1.6008 7.7679 1.85308 7.94572 2.0087L14.7189 7.93526H0.455357C0.203886 7.93526 0 8.11366 0 8.3337V8.66573C0 8.88577 0.203886 9.06417 0.455357 9.06417H14.7189L7.94572 14.9907C7.7679 15.1463 7.7679 15.3986 7.94572 15.5542L8.21404 15.789C8.39185 15.9446 8.68017 15.9446 8.85799 15.789L16.8666 8.78144C17.0444 8.62585 17.0444 8.37358 16.8666 8.21795L8.85799 1.21047C8.68017 1.05484 8.39185 1.05484 8.21404 1.21047Z" fill="black"/>
</svg>
