<svg width="36" height="36" viewBox="0 0 36 36" fill="none" xmlns="http://www.w3.org/2000/svg">
<path d="M17.9863 0.25C27.7881 0.250114 35.7227 7.97957 35.7227 17.5C35.7227 27.0204 27.7881 34.7499 17.9863 34.75C8.18444 34.75 0.25 27.0205 0.25 17.5C0.25 7.9795 8.18444 0.25 17.9863 0.25Z" stroke="black" stroke-width="0.5"/>
<path d="M13.5952 23.0909C13.3149 23.0909 13.0743 22.9905 12.8736 22.7898C12.6728 22.589 12.5724 22.3485 12.5724 22.0682C12.5724 21.7879 12.6728 21.5473 12.8736 21.3466C13.0743 21.1458 13.3149 21.0455 13.5952 21.0455C13.8755 21.0455 14.116 21.1458 14.3168 21.3466C14.5175 21.5473 14.6179 21.7879 14.6179 22.0682C14.6179 22.2538 14.5705 22.4242 14.4759 22.5795C14.3849 22.7348 14.2618 22.8598 14.1065 22.9545C13.955 23.0455 13.7846 23.0909 13.5952 23.0909ZM18.0014 23.0909C17.7211 23.0909 17.4806 22.9905 17.2798 22.7898C17.0791 22.589 16.9787 22.3485 16.9787 22.0682C16.9787 21.7879 17.0791 21.5473 17.2798 21.3466C17.4806 21.1458 17.7211 21.0455 18.0014 21.0455C18.2817 21.0455 18.5223 21.1458 18.723 21.3466C18.9238 21.5473 19.0241 21.7879 19.0241 22.0682C19.0241 22.2538 18.9768 22.4242 18.8821 22.5795C18.7912 22.7348 18.6681 22.8598 18.5128 22.9545C18.3613 23.0455 18.1908 23.0909 18.0014 23.0909ZM22.4077 23.0909C22.1274 23.0909 21.8868 22.9905 21.6861 22.7898C21.4853 22.589 21.3849 22.3485 21.3849 22.0682C21.3849 21.7879 21.4853 21.5473 21.6861 21.3466C21.8868 21.1458 22.1274 21.0455 22.4077 21.0455C22.688 21.0455 22.9285 21.1458 23.1293 21.3466C23.33 21.5473 23.4304 21.7879 23.4304 22.0682C23.4304 22.2538 23.383 22.4242 23.2884 22.5795C23.1974 22.7348 23.0743 22.8598 22.919 22.9545C22.7675 23.0455 22.5971 23.0909 22.4077 23.0909Z" fill="black"/>
</svg>
