<svg width="28" height="26" viewBox="0 0 28 26" fill="none" xmlns="http://www.w3.org/2000/svg">
<path d="M26.3307 13.0012H9.8574M4.04273 13.0012H1.66406M4.04273 13.0012C4.04273 12.2303 4.34897 11.4909 4.89407 10.9458C5.43918 10.4007 6.1785 10.0945 6.9494 10.0945C7.72029 10.0945 8.45961 10.4007 9.00472 10.9458C9.54983 11.4909 9.85606 12.2303 9.85606 13.0012C9.85606 13.7721 9.54983 14.5114 9.00472 15.0565C8.45961 15.6016 7.72029 15.9078 6.9494 15.9078C6.1785 15.9078 5.43918 15.6016 4.89407 15.0565C4.34897 14.5114 4.04273 13.7721 4.04273 13.0012ZM26.3307 21.8105H18.6667M18.6667 21.8105C18.6667 22.5816 18.3598 23.3217 17.8145 23.867C17.2693 24.4122 16.5298 24.7185 15.7587 24.7185C14.9878 24.7185 14.2485 24.4109 13.7034 23.8658C13.1583 23.3207 12.8521 22.5814 12.8521 21.8105M18.6667 21.8105C18.6667 21.0394 18.3598 20.3006 17.8145 19.7554C17.2693 19.2101 16.5298 18.9038 15.7587 18.9038C14.9878 18.9038 14.2485 19.2101 13.7034 19.7552C13.1583 20.3003 12.8521 21.0396 12.8521 21.8105M12.8521 21.8105H1.66406M26.3307 4.19182H22.1907M16.3761 4.19182H1.66406M16.3761 4.19182C16.3761 3.42093 16.6823 2.6816 17.2274 2.1365C17.7725 1.59139 18.5118 1.28516 19.2827 1.28516C19.6644 1.28516 20.0424 1.36034 20.3951 1.50641C20.7477 1.65249 21.0681 1.86659 21.3381 2.1365C21.608 2.40641 21.8221 2.72684 21.9681 3.07949C22.1142 3.43214 22.1894 3.81011 22.1894 4.19182C22.1894 4.57353 22.1142 4.9515 21.9681 5.30416C21.8221 5.65681 21.608 5.97724 21.3381 6.24715C21.0681 6.51706 20.7477 6.73116 20.3951 6.87723C20.0424 7.02331 19.6644 7.09849 19.2827 7.09849C18.5118 7.09849 17.7725 6.79225 17.2274 6.24715C16.6823 5.70204 16.3761 4.96272 16.3761 4.19182Z" stroke="#454545" stroke-width="1.8" stroke-miterlimit="10" stroke-linecap="round"/>
</svg>
