<svg width="43" height="42" viewBox="0 0 43 42" fill="none" xmlns="http://www.w3.org/2000/svg">
<rect x="1.1522" y="0.59751" width="40.6307" height="40.6307" rx="20.3154" stroke="#F4F4F4" stroke-width="1.19502"/>
<g clip-path="url(#clip0_405_29171)">
<g clip-path="url(#clip1_405_29171)">
<g clip-path="url(#clip2_405_29171)">
<path d="M29.2384 20.9122C29.2384 25.2032 25.7618 28.6798 21.4708 28.6798C20.6689 28.6798 19.8984 28.5576 19.1718 28.3321C19.4881 27.8153 19.9611 26.9697 20.1365 26.2963C20.2304 25.9329 20.6188 24.4483 20.6188 24.4483C20.8725 24.9307 21.6117 25.341 22.3979 25.341C24.7407 25.341 26.4289 23.1861 26.4289 20.5081C26.4289 17.9429 24.3335 16.0229 21.6399 16.0229C18.2885 16.0229 16.5064 18.2718 16.5064 20.7242C16.5064 21.8643 17.114 23.2832 18.0818 23.7342C18.229 23.8031 18.3073 23.7718 18.3418 23.6308C18.3668 23.5243 18.4984 22.995 18.5579 22.7507C18.5767 22.6724 18.5673 22.6035 18.5047 22.5283C18.1883 22.1368 17.9315 21.4227 17.9315 20.7556C17.9315 19.0423 19.2282 17.3854 21.4394 17.3854C23.3469 17.3854 24.6843 18.6852 24.6843 20.5457C24.6843 22.6474 23.6225 24.1038 22.2413 24.1038C21.4802 24.1038 20.907 23.4742 21.0918 22.7006C21.311 21.7766 21.7339 20.7806 21.7339 20.1135C21.7339 19.5184 21.4144 19.0204 20.7504 19.0204C19.9705 19.0204 19.3441 19.8253 19.3441 20.9059C19.3441 21.595 19.5758 22.0585 19.5758 22.0585C19.5758 22.0585 18.8085 25.3096 18.6675 25.9173C18.5109 26.5876 18.5736 27.5334 18.6393 28.1473C15.7515 27.0167 13.7031 24.204 13.7031 20.9122C13.7031 16.6212 17.1798 13.1445 21.4708 13.1445C25.7618 13.1445 29.2384 16.6212 29.2384 20.9122Z" fill="black"/>
</g>
</g>
</g>
<defs>
<clipPath id="clip0_405_29171">
<rect width="15.5353" height="17.9253" fill="white" transform="translate(13.7031 11.9492)"/>
</clipPath>
<clipPath id="clip1_405_29171">
<rect width="15.5353" height="17.9253" fill="white" transform="translate(13.7031 11.9492)"/>
</clipPath>
<clipPath id="clip2_405_29171">
<rect width="15.5353" height="16.0364" fill="white" transform="translate(13.7031 12.8945)"/>
</clipPath>
</defs>
</svg>
