<svg width="22" height="25" viewBox="0 0 22 25" fill="none" xmlns="http://www.w3.org/2000/svg">
<path fill-rule="evenodd" clip-rule="evenodd" d="M10.5807 11.5859C10.7794 11.5859 10.9699 11.6648 11.1103 11.8053C11.2508 11.9458 11.3297 12.1363 11.3297 12.3349V14.5818H13.5766C13.7752 14.5818 13.9657 14.6607 14.1062 14.8011C14.2466 14.9416 14.3255 15.1321 14.3255 15.3307C14.3255 15.5294 14.2466 15.7199 14.1062 15.8603C13.9657 16.0008 13.7752 16.0797 13.5766 16.0797H11.3297V18.3266C11.3297 18.5252 11.2508 18.7157 11.1103 18.8562C10.9699 18.9966 10.7794 19.0755 10.5807 19.0755C10.3821 19.0755 10.1916 18.9966 10.0511 18.8562C9.91068 18.7157 9.83178 18.5252 9.83178 18.3266V16.0797H7.5849C7.38626 16.0797 7.19576 16.0008 7.0553 15.8603C6.91485 15.7199 6.83594 15.5294 6.83594 15.3307C6.83594 15.1321 6.91485 14.9416 7.0553 14.8011C7.19576 14.6607 7.38626 14.5818 7.5849 14.5818H9.83178V12.3349C9.83178 12.1363 9.91068 11.9458 10.0511 11.8053C10.1916 11.6648 10.3821 11.5859 10.5807 11.5859Z" fill="#3D3D3D"/>
<path d="M10.5792 1.84948C11.5724 1.84948 12.5249 2.24402 13.2272 2.94631C13.9294 3.64859 14.324 4.6011 14.324 5.59428V6.34324H6.83439V5.59428C6.83439 4.6011 7.22893 3.64859 7.93121 2.94631C8.6335 2.24402 9.58601 1.84948 10.5792 1.84948ZM15.8219 6.34324V5.59428C15.8219 4.20383 15.2696 2.87032 14.2863 1.88712C13.3031 0.903919 11.9696 0.351563 10.5792 0.351562C9.18873 0.351563 7.85523 0.903919 6.87203 1.88712C5.88883 2.87032 5.33647 4.20383 5.33647 5.59428V6.34324H0.09375V21.3224C0.09375 22.117 0.409382 22.879 0.971211 23.4408C1.53304 24.0026 2.29504 24.3183 3.08959 24.3183H18.0688C18.8633 24.3183 19.6253 24.0026 20.1872 23.4408C20.749 22.879 21.0646 22.117 21.0646 21.3224V6.34324H15.8219ZM1.59167 7.84116H19.5667V21.3224C19.5667 21.7197 19.4089 22.1007 19.128 22.3816C18.8471 22.6625 18.4661 22.8204 18.0688 22.8204H3.08959C2.69232 22.8204 2.31131 22.6625 2.0304 22.3816C1.74949 22.1007 1.59167 21.7197 1.59167 21.3224V7.84116Z" fill="#3D3D3D"/>
</svg>
