<svg width="24" height="24" viewBox="0 0 24 24" fill="none" xmlns="http://www.w3.org/2000/svg">
<path d="M8.78502 17.2966C6.40614 17.2966 4.39305 16.4725 2.74573 14.8243C1.09841 13.1761 0.274311 11.163 0.273438 8.78502C0.272565 6.40702 1.09666 4.39392 2.74573 2.74573C4.39479 1.09753 6.40789 0.273438 8.78502 0.273438C11.1622 0.273438 13.1757 1.09753 14.8256 2.74573C16.4756 4.39392 17.2992 6.40702 17.2966 8.78502C17.2966 9.7453 17.1438 10.651 16.8383 11.5022C16.5327 12.3533 16.1181 13.1063 15.5943 13.761L22.9273 21.0941C23.1674 21.3342 23.2875 21.6397 23.2875 22.0107C23.2875 22.3817 23.1674 22.6873 22.9273 22.9273C22.6873 23.1674 22.3817 23.2875 22.0107 23.2875C21.6397 23.2875 21.3342 23.1674 21.0941 22.9273L13.761 15.5943C13.1063 16.1181 12.3533 16.5327 11.5022 16.8383C10.651 17.1438 9.74531 17.2966 8.78502 17.2966ZM8.78502 14.6777C10.4219 14.6777 11.8134 14.105 12.9596 12.9596C14.1059 11.8143 14.6785 10.4227 14.6777 8.78502C14.6768 7.14731 14.1041 5.75621 12.9596 4.61173C11.8151 3.46725 10.4236 2.89413 8.78502 2.89239C7.14643 2.89064 5.75534 3.46375 4.61173 4.61173C3.46812 5.7597 2.89501 7.1508 2.89239 8.78502C2.88977 10.4192 3.46288 11.8108 4.61173 12.9596C5.76057 14.1085 7.15167 14.6811 8.78502 14.6777Z" fill="#3D3D3D"/>
</svg>
