<svg width="36" height="36" viewBox="0 0 36 36" fill="none" xmlns="http://www.w3.org/2000/svg">
<path d="M17.9863 0.25C27.7881 0.250114 35.7227 7.97957 35.7227 17.5C35.7227 27.0204 27.7881 34.7499 17.9863 34.75C8.18444 34.75 0.25 27.0205 0.25 17.5C0.25 7.9795 8.18444 0.25 17.9863 0.25Z" stroke="black" stroke-width="0.5"/>
<path d="M14.3608 24V22.9773L18.2017 18.7727C18.6525 18.2803 19.0237 17.8523 19.3153 17.4886C19.607 17.1212 19.8229 16.7765 19.9631 16.4545C20.107 16.1288 20.179 15.7879 20.179 15.4318C20.179 15.0227 20.0805 14.6686 19.8835 14.3693C19.6903 14.0701 19.4252 13.839 19.0881 13.6761C18.7509 13.5133 18.3722 13.4318 17.9517 13.4318C17.5047 13.4318 17.1146 13.5246 16.7812 13.7102C16.4517 13.892 16.196 14.1477 16.0142 14.4773C15.8362 14.8068 15.7472 15.1932 15.7472 15.6364H14.4062C14.4062 14.9545 14.5634 14.3561 14.8778 13.8409C15.1922 13.3258 15.6203 12.9242 16.1619 12.6364C16.7074 12.3485 17.3191 12.2045 17.9972 12.2045C18.679 12.2045 19.2831 12.3485 19.8097 12.6364C20.3362 12.9242 20.7491 13.3125 21.0483 13.8011C21.3475 14.2898 21.4972 14.8333 21.4972 15.4318C21.4972 15.8598 21.4195 16.2784 21.2642 16.6875C21.1127 17.0928 20.8475 17.5455 20.4688 18.0455C20.0938 18.5417 19.5729 19.1477 18.9062 19.8636L16.2926 22.6591V22.75H21.7017V24H14.3608Z" fill="black"/>
</svg>
