<svg width="36" height="36" viewBox="0 0 36 36" fill="none" xmlns="http://www.w3.org/2000/svg">
<ellipse cx="17.9861" cy="17.5" rx="17.9861" ry="17.5" fill="#5D8F58"/>
<path d="M18.0426 24.1591C17.2926 24.1591 16.6241 24.0303 16.0369 23.7727C15.4536 23.5152 14.9896 23.1572 14.6449 22.6989C14.304 22.2367 14.1184 21.7008 14.0881 21.0909H15.5199C15.5502 21.4659 15.679 21.7898 15.9062 22.0625C16.1335 22.3314 16.4309 22.5398 16.7983 22.6875C17.1657 22.8352 17.5729 22.9091 18.0199 22.9091C18.5199 22.9091 18.9631 22.822 19.3494 22.6477C19.7358 22.4735 20.0388 22.2311 20.2585 21.9205C20.4782 21.6098 20.5881 21.25 20.5881 20.8409C20.5881 20.4129 20.482 20.036 20.2699 19.7102C20.0578 19.3807 19.7472 19.1231 19.3381 18.9375C18.929 18.7519 18.429 18.6591 17.8381 18.6591H16.9062V17.4091H17.8381C18.3002 17.4091 18.7055 17.3258 19.054 17.1591C19.4063 16.9924 19.6809 16.7576 19.8778 16.4545C20.0786 16.1515 20.179 15.7955 20.179 15.3864C20.179 14.9924 20.0919 14.6496 19.9176 14.358C19.7434 14.0663 19.4972 13.839 19.179 13.6761C18.8646 13.5133 18.4934 13.4318 18.0653 13.4318C17.6638 13.4318 17.285 13.5057 16.929 13.6534C16.5767 13.7973 16.2888 14.0076 16.0653 14.2841C15.8419 14.5568 15.7206 14.8864 15.7017 15.2727H14.3381C14.3608 14.6629 14.5445 14.1288 14.8892 13.6705C15.2339 13.2083 15.6847 12.8485 16.2415 12.5909C16.8021 12.3333 17.4176 12.2045 18.0881 12.2045C18.8078 12.2045 19.4252 12.3504 19.9403 12.642C20.4555 12.9299 20.8513 13.3106 21.1278 13.7841C21.4044 14.2576 21.5426 14.7689 21.5426 15.3182C21.5426 15.9735 21.3703 16.5322 21.0256 16.9943C20.6847 17.4564 20.2206 17.7765 19.6335 17.9545V18.0455C20.3684 18.1667 20.9422 18.4792 21.3551 18.983C21.768 19.483 21.9744 20.1023 21.9744 20.8409C21.9744 21.4735 21.8021 22.0417 21.4574 22.5455C21.1165 23.0455 20.6506 23.4394 20.0597 23.7273C19.4688 24.0152 18.7964 24.1591 18.0426 24.1591Z" fill="#F5F5F5"/>
</svg>
