<svg width="28" height="29" viewBox="0 0 28 29" fill="none" xmlns="http://www.w3.org/2000/svg">
<path d="M9.11755 19.188C6.61315 16.6787 4.68717 13.6527 3.47431 10.3215C2.80705 8.50017 3.41842 6.49956 4.79021 5.12777L5.63915 4.28002C5.86738 4.05133 6.13847 3.8699 6.4369 3.7461C6.73534 3.62231 7.05526 3.55859 7.37835 3.55859C7.70144 3.55859 8.02136 3.62231 8.31979 3.7461C8.61823 3.8699 8.88932 4.05133 9.11755 4.28002L11.1054 6.26782C11.3341 6.49605 11.5155 6.76714 11.6393 7.06557C11.7631 7.364 11.8268 7.68392 11.8268 8.00701C11.8268 8.33009 11.7631 8.65001 11.6393 8.94844C11.5155 9.24687 11.3341 9.51796 11.1054 9.74619L10.6163 10.2353C10.4205 10.431 10.2652 10.6634 10.1593 10.9191C10.0533 11.1749 9.99877 11.449 9.99877 11.7258C9.99877 12.0027 10.0533 12.2768 10.1593 12.5326C10.2652 12.7883 10.4205 13.0207 10.6163 13.2164L15.088 17.6893C15.2837 17.885 15.5161 18.0403 15.7719 18.1463C16.0276 18.2522 16.3018 18.3068 16.5786 18.3068C16.8554 18.3068 17.1296 18.2522 17.3853 18.1463C17.6411 18.0403 17.8734 17.885 18.0692 17.6893L18.5594 17.2002C18.7877 16.9715 19.0588 16.7901 19.3572 16.6663C19.6556 16.5425 19.9755 16.4787 20.2986 16.4787C20.6217 16.4787 20.9416 16.5425 21.2401 16.6663C21.5385 16.7901 21.8096 16.9715 22.0378 17.2002L24.0257 19.188C24.2544 19.4162 24.4358 19.6873 24.5596 19.9857C24.6834 20.2842 24.7471 20.6041 24.7471 20.9272C24.7471 21.2502 24.6834 21.5702 24.5596 21.8686C24.4358 22.167 24.2544 22.4381 24.0257 22.6663L23.1779 23.5141C21.8061 24.8871 19.8055 25.4984 17.9842 24.8312C14.6529 23.6183 11.6268 21.6923 9.11755 19.188Z" stroke="#4F4F4F" stroke-width="1.5" stroke-linejoin="round"/>
</svg>
