<svg width="22" height="26" viewBox="0 0 22 26" fill="none" xmlns="http://www.w3.org/2000/svg">
<path d="M20.9992 6.86082H16.8253V6.36977C16.8253 3.25158 14.2964 0.722656 11.1782 0.722656C8.05998 0.722656 5.53106 3.25158 5.53106 6.36977V6.86082H1.35711C0.813879 6.86082 0.375 7.2997 0.375 7.84292V24.2932C0.375 24.8364 0.813879 25.2753 1.35711 25.2753H20.9992C21.5425 25.2753 21.9813 24.8364 21.9813 24.2932V7.84292C21.9813 7.2997 21.5425 6.86082 20.9992 6.86082ZM7.74079 6.36977C7.74079 4.47 9.2784 2.93239 11.1782 2.93239C13.0779 2.93239 14.6155 4.47 14.6155 6.36977V6.86082H7.74079V6.36977ZM19.7716 23.0656H2.58474V9.07056H5.53106V11.7713C5.53106 11.9064 5.64154 12.0169 5.77658 12.0169H7.49527C7.63031 12.0169 7.74079 11.9064 7.74079 11.7713V9.07056H14.6155V11.7713C14.6155 11.9064 14.726 12.0169 14.8611 12.0169H16.5797C16.7148 12.0169 16.8253 11.9064 16.8253 11.7713V9.07056H19.7716V23.0656Z" fill="#3D3D3D"/>
</svg>
