<svg width="31" height="31" viewBox="0 0 31 31" fill="none" xmlns="http://www.w3.org/2000/svg">
<rect x="0.507812" width="30.3529" height="30.3529" rx="6" fill="#3C5C39"/>
<g clip-path="url(#clip0_377_3010)">
<path d="M22.4146 12.1591C22.3822 11.4244 22.2634 10.9192 22.0932 10.4816C21.9177 10.017 21.6475 9.60104 21.2936 9.25527C20.9479 8.90411 20.5292 8.63125 20.07 8.45841C19.6298 8.28822 19.1273 8.1694 18.3926 8.13701C17.6524 8.10187 17.4174 8.09375 15.5401 8.09375C13.6627 8.09375 13.4278 8.10187 12.6903 8.13427C11.9556 8.16666 11.4505 8.28558 11.0129 8.45567C10.5482 8.63125 10.1323 8.90137 9.78652 9.25527C9.43536 9.60104 9.1626 10.0197 8.98966 10.4789C8.81947 10.9193 8.70065 11.4216 8.66826 12.1563C8.63312 12.8965 8.625 13.1315 8.625 15.0088C8.625 16.8862 8.63312 17.1211 8.66552 17.8586C8.69791 18.5933 8.81683 19.0984 8.98702 19.5361C9.1626 20.0007 9.43536 20.4166 9.78652 20.7624C10.1323 21.1135 10.551 21.3864 11.0102 21.5592C11.4505 21.7294 11.9529 21.8483 12.6877 21.8806C13.425 21.9131 13.6601 21.9212 15.5374 21.9212C17.4148 21.9212 17.6498 21.9131 18.3872 21.8806C19.1219 21.8483 19.627 21.7294 20.0646 21.5592C20.9939 21.2 21.7286 20.4653 22.0879 19.5361C22.2579 19.0958 22.3769 18.5933 22.4093 17.8586C22.4417 17.1211 22.4498 16.8862 22.4498 15.0088C22.4498 13.1315 22.447 12.8965 22.4146 12.1591ZM21.1694 17.8046C21.1397 18.4799 21.0263 18.8445 20.9317 19.0876C20.6994 19.69 20.2213 20.1681 19.6189 20.4005C19.3758 20.495 19.0085 20.6084 18.3358 20.6381C17.6065 20.6706 17.3878 20.6786 15.5428 20.6786C13.6979 20.6786 13.4764 20.6706 12.7497 20.6381C12.0744 20.6084 11.7098 20.495 11.4666 20.4005C11.1669 20.2897 10.894 20.1141 10.6725 19.8845C10.4429 19.6603 10.2674 19.3902 10.1566 19.0904C10.062 18.8473 9.94859 18.4799 9.91894 17.8073C9.88644 17.078 9.87842 16.8592 9.87842 15.0142C9.87842 13.1693 9.88644 12.9478 9.91894 12.2212C9.94859 11.5459 10.062 11.1812 10.1566 10.9381C10.2674 10.6383 10.4429 10.3655 10.6753 10.1439C10.8994 9.91432 11.1695 9.73874 11.4694 9.62805C11.7125 9.53351 12.0799 9.42008 12.7525 9.39033C13.4818 9.35793 13.7006 9.34981 15.5455 9.34981C17.3931 9.34981 17.6119 9.35793 18.3386 9.39033C19.0139 9.42008 19.3785 9.53351 19.6216 9.62805C19.9214 9.73874 20.1943 9.91432 20.4157 10.1439C20.6454 10.3681 20.8209 10.6383 20.9317 10.9381C21.0263 11.1812 21.1397 11.5485 21.1694 12.2212C21.2018 12.9505 21.21 13.1693 21.21 15.0142C21.21 16.8592 21.2018 17.0752 21.1694 17.8046Z" fill="#F2F2F2"/>
<path d="M15.5443 11.457C13.5833 11.457 11.9922 13.048 11.9922 15.0091C11.9922 16.9702 13.5833 18.5612 15.5443 18.5612C17.5054 18.5612 19.0963 16.9702 19.0963 15.0091C19.0963 13.048 17.5054 11.457 15.5443 11.457ZM15.5443 17.3133C14.2721 17.3133 13.2401 16.2814 13.2401 15.0091C13.2401 13.7368 14.2721 12.705 15.5443 12.705C16.8166 12.705 17.8484 13.7368 17.8484 15.0091C17.8484 16.2814 16.8166 17.3133 15.5443 17.3133Z" fill="#F2F2F2"/>
<path d="M19.9399 11.6886C19.9399 12.1466 19.5685 12.5179 19.1105 12.5179C18.6526 12.5179 18.2813 12.1466 18.2813 11.6886C18.2813 11.2306 18.6526 10.8594 19.1105 10.8594C19.5685 10.8594 19.9399 11.2306 19.9399 11.6886Z" fill="#F2F2F2"/>
</g>
<defs>
<clipPath id="clip0_377_3010">
<rect width="13.8275" height="13.8275" fill="white" transform="translate(8.60156 8.09375)"/>
</clipPath>
</defs>
</svg>
