<svg width="43" height="42" viewBox="0 0 43 42" fill="none" xmlns="http://www.w3.org/2000/svg">
<rect x="1.37095" y="0.59751" width="40.6307" height="40.6307" rx="20.3154" stroke="#F4F4F4" stroke-width="1.19502"/>
<g clip-path="url(#clip0_405_29166)">
<g clip-path="url(#clip1_405_29166)">
<g clip-path="url(#clip2_405_29166)">
<path d="M27.8524 17.748C27.8623 17.886 27.8623 18.024 27.8623 18.162C27.8623 22.3711 24.6586 27.221 18.8033 27.221C16.9994 27.221 15.3237 26.6985 13.9141 25.7917C14.1704 25.8212 14.4168 25.8311 14.6829 25.8311C16.1714 25.8311 17.5416 25.3284 18.6358 24.4708C17.236 24.4412 16.063 23.5245 15.6588 22.2627C15.856 22.2923 16.0531 22.312 16.2601 22.312C16.546 22.312 16.8319 22.2725 17.098 22.2036C15.6391 21.9078 14.5449 20.6264 14.5449 19.0788V19.0394C14.9688 19.2759 15.4617 19.4238 15.9841 19.4435C15.1265 18.8717 14.5646 17.8959 14.5646 16.7918C14.5646 16.2004 14.7223 15.6582 14.9983 15.1851C16.5657 17.1171 18.9216 18.3789 21.5634 18.5169C21.5141 18.2803 21.4845 18.0339 21.4845 17.7875C21.4845 16.0328 22.904 14.6035 24.6684 14.6035C25.5852 14.6035 26.4132 14.988 26.9948 15.609C27.7144 15.471 28.4044 15.2048 29.0156 14.8401C28.7789 15.5794 28.2762 16.2004 27.6158 16.5947C28.2565 16.5257 28.8776 16.3483 29.4493 16.1018C29.0156 16.7327 28.4734 17.2945 27.8524 17.748Z" fill="black"/>
</g>
</g>
</g>
<defs>
<clipPath id="clip0_405_29166">
<rect width="15.5353" height="17.9253" fill="white" transform="translate(13.9141 11.9492)"/>
</clipPath>
<clipPath id="clip1_405_29166">
<rect width="15.5353" height="17.9253" fill="white" transform="translate(13.9141 11.9492)"/>
</clipPath>
<clipPath id="clip2_405_29166">
<rect width="15.5353" height="15.5353" fill="white" transform="translate(13.9141 13.1445)"/>
</clipPath>
</defs>
</svg>
