<svg width="25" height="21" viewBox="0 0 25 21" fill="none" xmlns="http://www.w3.org/2000/svg">
<g clip-path="url(#clip0_405_29153)">
<path d="M16.2304 11.9692C15.2369 11.9692 14.7592 12.5231 13.1288 12.5231C11.4985 12.5231 11.0242 11.9692 10.0273 11.9692C7.45885 11.9692 5.375 14.0531 5.375 16.6215V18.0615C5.375 18.9788 6.11923 19.7231 7.03654 19.7231H19.2212C20.1385 19.7231 20.8827 18.9788 20.8827 18.0615V16.6215C20.8827 14.0531 18.7988 11.9692 16.2304 11.9692ZM19.775 18.0615C19.775 18.3662 19.5258 18.6154 19.2212 18.6154H7.03654C6.73192 18.6154 6.48269 18.3662 6.48269 18.0615V16.6215C6.48269 14.6658 8.07154 13.0769 10.0273 13.0769C10.7058 13.0769 11.3808 13.6308 13.1288 13.6308C14.8735 13.6308 15.5519 13.0769 16.2304 13.0769C18.1862 13.0769 19.775 14.6658 19.775 16.6215V18.0615ZM13.1288 10.8615C15.5762 10.8615 17.5596 8.87808 17.5596 6.43077C17.5596 3.98346 15.5762 2 13.1288 2C10.6815 2 8.69808 3.98346 8.69808 6.43077C8.69808 8.87808 10.6815 10.8615 13.1288 10.8615ZM13.1288 3.10769C14.96 3.10769 16.4519 4.59962 16.4519 6.43077C16.4519 8.26192 14.96 9.75385 13.1288 9.75385C11.2977 9.75385 9.80577 8.26192 9.80577 6.43077C9.80577 4.59962 11.2977 3.10769 13.1288 3.10769Z" fill="#454545"/>
</g>
<defs>
<clipPath id="clip0_405_29153">
<rect width="15.5077" height="17.7231" fill="white" transform="translate(5.375 2)"/>
</clipPath>
</defs>
</svg>
