<svg width="31" height="31" viewBox="0 0 31 31" fill="none" xmlns="http://www.w3.org/2000/svg">
<rect x="0.15625" width="30.3529" height="30.3529" rx="6" fill="#3C5C39"/>
<path d="M13.6043 16.5901C13.5586 16.5901 12.5516 16.5901 12.0938 16.5901C11.8497 16.5901 11.7734 16.4985 11.7734 16.2697C11.7734 15.6594 11.7734 15.0338 11.7734 14.4235C11.7734 14.1794 11.865 14.1031 12.0938 14.1031L13.6043 14.1031C13.6043 14.0573 13.6043 13.1724 13.6043 12.7605C13.6043 12.1502 13.7111 11.5704 14.0163 11.0364C14.3367 10.4871 14.7944 10.1209 15.3742 9.90733C15.7556 9.77001 16.1371 9.70898 16.549 9.70898L18.0442 9.70898C18.2578 9.70898 18.3494 9.80053 18.3494 10.0141L18.3494 11.7535C18.3494 11.9671 18.2578 12.0586 18.0442 12.0586C17.6323 12.0586 17.2203 12.0586 16.8084 12.0739C16.3964 12.0739 16.1828 12.2722 16.1828 12.6994C16.1676 13.1572 16.1828 13.5996 16.1828 14.0726L17.9527 14.0726C18.1968 14.0726 18.2884 14.1641 18.2884 14.4083L18.2884 16.2544C18.2884 16.4985 18.2121 16.5748 17.9527 16.5748C17.4034 16.5748 16.2286 16.5748 16.1828 16.5748L16.1828 21.5487C16.1828 21.8081 16.1065 21.8997 15.8319 21.8997C15.1911 21.8997 14.5655 21.8997 13.9247 21.8997C13.6959 21.8997 13.6043 21.8081 13.6043 21.5793C13.6043 19.9772 13.6043 16.6358 13.6043 16.5901Z" fill="#F2F2F2"/>
</svg>
