<svg width="42" height="42" viewBox="0 0 42 42" fill="none" xmlns="http://www.w3.org/2000/svg">
<rect x="0.699073" y="0.59751" width="40.6307" height="40.6307" rx="20.3154" stroke="#F4F4F4" stroke-width="1.19502"/>
<g clip-path="url(#clip0_405_29181)">
<g clip-path="url(#clip1_405_29181)">
<g clip-path="url(#clip2_405_29181)">
<path d="M23.1524 18.7697C24.9652 20.5845 24.9404 23.494 23.1633 25.2809C23.16 25.2845 23.156 25.2885 23.1524 25.2921L21.1134 27.3311C19.315 29.1295 16.3891 29.1293 14.591 27.3311C12.7926 25.533 12.7926 22.6068 14.591 20.8087L15.7169 19.6829C16.0154 19.3843 16.5296 19.5827 16.545 20.0047C16.5647 20.5424 16.6611 21.0826 16.839 21.6044C16.8993 21.781 16.8562 21.9764 16.7243 22.1084L16.3272 22.5055C15.4768 23.3559 15.4501 24.7405 16.2921 25.5992C17.1424 26.4663 18.5401 26.4715 19.3969 25.6147L21.4359 23.576C22.2913 22.7206 22.2877 21.338 21.4359 20.4862C21.3236 20.3741 21.2105 20.287 21.1221 20.2262C21.0596 20.1833 21.008 20.1263 20.9714 20.0599C20.9348 19.9935 20.9142 19.9195 20.9113 19.8437C20.8993 19.5231 21.0129 19.1927 21.2663 18.9393L21.9051 18.3005C22.0726 18.1329 22.3354 18.1124 22.5297 18.2479C22.7521 18.4033 22.9605 18.5779 23.1524 18.7697ZM27.4287 14.4932C25.6305 12.6951 22.7047 12.6948 20.9063 14.4932L18.8673 16.5322C18.8636 16.5359 18.8597 16.5398 18.8564 16.5435C17.0793 18.3304 17.0544 21.2399 18.8673 23.0546C19.0591 23.2465 19.2675 23.4211 19.4899 23.5764C19.6842 23.712 19.947 23.6914 20.1145 23.5239L20.7533 22.885C21.0067 22.6317 21.1203 22.3013 21.1083 21.9806C21.1054 21.9049 21.0848 21.8308 21.0482 21.7644C21.0116 21.698 20.96 21.6411 20.8975 21.5981C20.8091 21.5373 20.696 21.4502 20.5837 21.3381C19.7319 20.4863 19.7283 19.1037 20.5837 18.2484L22.6227 16.2097C23.4796 15.3528 24.8771 15.358 25.7275 16.2251C26.5695 17.0838 26.5429 18.4685 25.6924 19.3188L25.2954 19.7159C25.1634 19.8479 25.1203 20.0433 25.1806 20.22C25.3585 20.7417 25.4549 21.2819 25.4746 21.8197C25.49 22.2416 26.0042 22.44 26.3028 22.1415L27.4286 21.0156C29.2271 19.2175 29.2271 16.2913 27.4287 14.4932Z" fill="black"/>
</g>
</g>
</g>
<defs>
<clipPath id="clip0_405_29181">
<rect width="15.5353" height="15.5353" fill="white" transform="translate(13.2422 13.1445)"/>
</clipPath>
<clipPath id="clip1_405_29181">
<rect width="15.5353" height="15.5353" fill="white" transform="translate(13.2422 13.1445)"/>
</clipPath>
<clipPath id="clip2_405_29181">
<rect width="15.5353" height="15.5353" fill="white" transform="translate(13.2422 13.1445)"/>
</clipPath>
</defs>
</svg>
