<svg width="78" height="78" viewBox="0 0 78 78" fill="none" xmlns="http://www.w3.org/2000/svg">
<path d="M73.5 42.77C73.5 23.555 58.59 10.5 42 10.5C25.585 10.5 10.5 23.275 10.5 42.98C8.4 44.17 7 46.41 7 49V56C7 59.85 10.15 63 14 63H17.5V41.65C17.5 28.105 28.455 17.15 42 17.15C55.545 17.15 66.5 28.105 66.5 41.65V66.5H38.5V73.5H66.5C70.35 73.5 73.5 70.35 73.5 66.5V62.23C75.565 61.145 77 59.01 77 56.49V48.44C77 45.99 75.565 43.855 73.5 42.77Z" fill="#3D3D3D"/>
<path d="M31.5 49C33.433 49 35 47.433 35 45.5C35 43.567 33.433 42 31.5 42C29.567 42 28 43.567 28 45.5C28 47.433 29.567 49 31.5 49Z" fill="#3D3D3D"/>
<path d="M52.5 49C54.433 49 56 47.433 56 45.5C56 43.567 54.433 42 52.5 42C50.567 42 49 43.567 49 45.5C49 47.433 50.567 49 52.5 49Z" fill="#3D3D3D"/>
<path d="M62.9967 38.605C62.1622 33.6845 59.6137 29.2179 55.8023 25.9958C51.9909 22.7738 47.1625 21.0041 42.1717 21C31.5667 21 20.1567 29.785 21.0667 43.575C25.3835 41.8102 29.1962 39.0039 32.1643 35.4067C35.1325 31.8096 37.1637 27.5334 38.0767 22.96C42.6617 32.165 52.0767 38.5 62.9967 38.605Z" fill="#3D3D3D"/>
</svg>
