<svg width="118" height="78" viewBox="0 0 118 78" fill="none" xmlns="http://www.w3.org/2000/svg">
<g clip-path="url(#clip0_360_1460)">
<g clip-path="url(#clip1_360_1460)">
<path d="M94.419 36.5736L92.0365 27.0439C92.6879 26.9055 93.1766 26.3277 93.1766 25.6353V24.0988C93.1766 20.7627 90.4625 18.0487 87.1266 18.0487H76.2749V14.8794C76.2749 13.2378 74.9395 11.9023 73.2978 11.9023H17.9825C16.3408 11.9023 15.0054 13.2378 15.0054 14.8794V41.0006C15.0054 41.7961 15.6503 42.4411 16.446 42.4411C17.2414 42.4411 17.8865 41.7962 17.8865 41.0006V14.8794C17.8865 14.8264 17.9295 14.7835 17.9825 14.7835H73.2976C73.3507 14.7835 73.3936 14.8264 73.3936 14.8794V41.0009C73.3936 41.7964 74.0385 42.4415 74.8342 42.4415C75.6296 42.4415 76.2747 41.7966 76.2747 41.0009V39.3679H93.2676C93.269 39.3679 93.2701 39.3683 93.2713 39.3683C93.2728 39.3683 93.274 39.3681 93.2753 39.3681C95.3663 39.3696 97.1418 40.742 97.7517 42.6332H93.2724C92.4769 42.6332 91.8319 43.2781 91.8319 44.0738V47.1468C91.8319 49.6356 93.8566 51.6604 96.3454 51.6604H97.9781V57.9985H94.2115C92.9741 54.4257 89.5779 51.8523 85.5897 51.8523C81.6015 51.8523 78.2051 54.4257 76.9679 57.9985H76.2743V47.1466C76.2743 46.3511 75.6294 45.7061 74.8338 45.7061C74.0383 45.7061 73.3932 46.351 73.3932 47.1466V57.9981H43.5062C42.2688 54.4254 38.8726 51.8519 34.8844 51.8519C30.8962 51.8519 27.4998 54.4254 26.2626 57.9981H17.9825C17.9295 57.9981 17.8865 57.9552 17.8865 57.9022V54.733H24.1287C24.9242 54.733 25.5692 54.0881 25.5692 53.2925C25.5692 52.4968 24.9243 51.8519 24.1287 51.8519H10.2999C9.50445 51.8519 8.85938 52.4968 8.85938 53.2925C8.85938 54.0881 9.50427 54.733 10.2999 54.733H15.0056V57.9022C15.0056 59.5438 16.341 60.8792 17.9826 60.8792H25.7638C25.7635 60.9112 25.7613 60.943 25.7613 60.9752C25.7613 66.0057 29.8541 70.0983 34.8844 70.0983C39.9148 70.0983 44.0075 66.0057 44.0075 60.9752C44.0075 60.9428 44.0053 60.9112 44.005 60.8792H76.4691C76.4688 60.9112 76.4666 60.943 76.4666 60.9752C76.4666 66.0057 80.5593 70.0983 85.5897 70.0983C90.6201 70.0983 94.7128 66.0057 94.7128 60.9752C94.7128 60.9428 94.7106 60.9112 94.7103 60.8792H99.4186C100.214 60.8792 100.859 60.2343 100.859 59.4387V44.0734C100.859 40.2799 98.0604 37.128 94.419 36.5736ZM76.2749 20.9297H87.1266C88.874 20.9297 90.2957 22.3514 90.2957 24.0988V24.1948H76.2749V20.9297ZM76.2749 36.487V27.0757H89.0749L91.4277 36.487H76.2749ZM34.8844 67.2177C31.4425 67.2177 28.6422 64.4176 28.6422 60.9755C28.6422 57.5335 31.4425 54.7334 34.8844 54.7334C38.3263 54.7334 41.1266 57.5335 41.1266 60.9755C41.1266 64.4176 38.3263 67.2177 34.8844 67.2177ZM85.5901 67.2177C82.1482 67.2177 79.3479 64.4176 79.3479 60.9755C79.3479 57.5335 82.1482 54.7334 85.5901 54.7334C89.032 54.7334 91.8322 57.5335 91.8322 60.9755C91.8322 64.4176 89.032 67.2177 85.5901 67.2177ZM97.9784 48.7793H96.3458C95.4456 48.7793 94.7132 48.0468 94.7132 47.1466V45.514H97.9783V48.7793H97.9784Z" fill="#3D3D3D"/>
<path d="M34.8755 57.998C33.2339 57.998 31.8984 59.3335 31.8984 60.9751C31.8984 62.6167 33.2339 63.9522 34.8755 63.9522C36.5171 63.9522 37.8526 62.6167 37.8526 60.9751C37.8526 59.3335 36.5171 57.998 34.8755 57.998Z" fill="#3D3D3D"/>
<path d="M85.5864 57.998C83.9448 57.998 82.6094 59.3335 82.6094 60.9751C82.6094 62.6167 83.9448 63.9522 85.5864 63.9522C87.2281 63.9522 88.5635 62.6167 88.5635 60.9751C88.5635 59.3335 87.2281 57.998 85.5864 57.998Z" fill="#3D3D3D"/>
<path d="M68.6786 51.8516H47.1671C46.3716 51.8516 45.7266 52.4965 45.7266 53.2921C45.7266 54.0878 46.3715 54.7327 47.1671 54.7327H68.6786C69.4741 54.7327 70.1191 54.0878 70.1191 53.2921C70.1191 52.4965 69.4742 51.8516 68.6786 51.8516Z" fill="#3D3D3D"/>
<path d="M31.8009 45.7051H13.3624C12.567 45.7051 11.9219 46.35 11.9219 47.1456C11.9219 47.9413 12.5668 48.5862 13.3624 48.5862H31.8009C32.5964 48.5862 33.2414 47.9413 33.2414 47.1456C33.2414 46.35 32.5964 45.7051 31.8009 45.7051Z" fill="#3D3D3D"/>
<path d="M58.9315 26.1523C58.3691 25.5898 57.4568 25.5898 56.8944 26.1524L44.0841 38.9625L37.42 32.2985C36.8574 31.7359 35.9453 31.7359 35.3829 32.2985C34.8203 32.8611 34.8203 33.773 35.3829 34.3356L43.0656 42.0183C43.3468 42.2997 43.7155 42.4402 44.0841 42.4402C44.4526 42.4402 44.8215 42.2997 45.1025 42.0183L58.9313 28.1896C59.4939 27.6268 59.4939 26.7149 58.9315 26.1523Z" fill="#3D3D3D"/>
</g>
</g>
<defs>
<clipPath id="clip0_360_1460">
<rect width="118" height="78" fill="white"/>
</clipPath>
<clipPath id="clip1_360_1460">
<rect width="92" height="92" fill="white" transform="translate(8.84375 -5)"/>
</clipPath>
</defs>
</svg>
