<svg width="80" height="80" viewBox="0 0 80 80" fill="none" xmlns="http://www.w3.org/2000/svg">
<path d="M30.0026 66.6673C25.387 66.6673 21.4559 65.044 18.2093 61.7973C14.9626 58.5507 13.3382 54.6184 13.3359 50.0007V30.0007C13.3359 25.3851 14.9604 21.454 18.2093 18.2073C21.4582 14.9607 25.3893 13.3362 30.0026 13.334H50.0026C54.6182 13.334 58.5504 14.9584 61.7993 18.2073C65.0482 21.4562 66.6715 25.3873 66.6693 30.0007V50.0007C66.6693 54.6162 65.0459 58.5484 61.7993 61.7973C58.5526 65.0462 54.6204 66.6695 50.0026 66.6673H30.0026ZM36.6693 46.3073L30.5159 40.154C30.2048 39.8429 29.8226 39.6762 29.3693 39.654C28.9159 39.6318 28.5115 39.7984 28.1559 40.154C27.8004 40.5095 27.6226 40.9029 27.6226 41.334C27.6226 41.7651 27.8004 42.1584 28.1559 42.514L34.7826 49.1407C35.3226 49.6784 35.9515 49.9473 36.6693 49.9473C37.3871 49.9473 38.0159 49.6784 38.5559 49.1407L53.1826 34.514C53.4937 34.2029 53.6604 33.8207 53.6826 33.3673C53.7048 32.914 53.5382 32.5095 53.1826 32.154C52.8271 31.7984 52.4337 31.6207 52.0026 31.6207C51.5715 31.6207 51.1782 31.7984 50.8226 32.154L36.6693 46.3073ZM30.0026 63.334H50.0026C53.6693 63.334 56.8082 62.0284 59.4193 59.4173C62.0304 56.8062 63.3359 53.6673 63.3359 50.0007V30.0007C63.3359 26.334 62.0304 23.1951 59.4193 20.584C56.8082 17.9729 53.6693 16.6673 50.0026 16.6673H30.0026C26.3359 16.6673 23.1971 17.9729 20.5859 20.584C17.9748 23.1951 16.6693 26.334 16.6693 30.0007V50.0007C16.6693 53.6673 17.9748 56.8062 20.5859 59.4173C23.1971 62.0284 26.3359 63.334 30.0026 63.334Z" fill="#1E1E1E"/>
</svg>
