<svg width="36" height="36" viewBox="0 0 36 36" fill="none" xmlns="http://www.w3.org/2000/svg">
<path d="M17.9863 0.25C27.7881 0.250114 35.7227 7.97957 35.7227 17.5C35.7227 27.0204 27.7881 34.7499 17.9863 34.75C8.18444 34.75 0.25 27.0205 0.25 17.5C0.25 7.9795 8.18444 0.25 17.9863 0.25Z" stroke="black" stroke-width="0.5"/>
<path d="M17.9737 24.1591C17.3071 24.1591 16.7067 24.0265 16.1726 23.7614C15.6385 23.4962 15.2105 23.1326 14.8885 22.6705C14.5665 22.2083 14.3904 21.6818 14.3601 21.0909H15.7237C15.7768 21.6174 16.0154 22.053 16.4396 22.3977C16.8677 22.7386 17.379 22.9091 17.9737 22.9091C18.451 22.9091 18.8752 22.7973 19.2464 22.5739C19.6214 22.3504 19.915 22.0436 20.1271 21.6534C20.343 21.2595 20.451 20.8144 20.451 20.3182C20.451 19.8106 20.3393 19.358 20.1158 18.9602C19.8961 18.5587 19.593 18.2424 19.2067 18.0114C18.8203 17.7803 18.379 17.6629 17.8828 17.6591C17.5268 17.6553 17.1612 17.7102 16.7862 17.8239C16.4112 17.9337 16.1025 18.0758 15.8601 18.25L14.5419 18.0909L15.2464 12.3636H21.2919V13.6136H16.4283L16.0192 17.0455H16.0874C16.326 16.8561 16.6252 16.6989 16.9851 16.5739C17.3449 16.4489 17.7199 16.3864 18.1101 16.3864C18.8222 16.3864 19.4567 16.5568 20.0135 16.8977C20.5741 17.2348 21.0135 17.697 21.3317 18.2841C21.6536 18.8712 21.8146 19.5417 21.8146 20.2955C21.8146 21.0379 21.648 21.7008 21.3146 22.2841C20.9851 22.8636 20.5305 23.322 19.951 23.6591C19.3714 23.9924 18.7124 24.1591 17.9737 24.1591Z" fill="black"/>
</svg>
