<svg xmlns="http://www.w3.org/2000/svg" viewBox="0 0 48 48" width="48px" height="48px"><path fill="#2962ff" d="M15,3,9,9v6h6V9h6V3Z"/><path fill="#2962ff" d="M39,3h-6v6h6v6h6V9Z"/><path fill="#2962ff" d="M9,39H3V33h6V27h6v6Z"/><path fill="#2962ff" d="M33,39v6h6V39h6V33h-6Z"/><path fill="#2196f3" d="M24,21v3a9,9,0,0,0,9,9h3A12,12,0,0,1,24,21Z"/><path fill="#2196f3" d="M24,9A12,12,0,0,0,12,21v3a9,9,0,0,1,9-9h3A12,12,0,0,0,24,9Z"/><path fill="#1e88e5" d="M24,33a9,9,0,0,1-9-9V21a12,12,0,0,0,12,12Z"/><path fill="#1e88e5" d="M33,24a9,9,0,0,0-9-9H21a12,12,0,0,1,12,12Z"/></svg>
