<svg width="17" height="26" viewBox="0 0 17 26" fill="none" xmlns="http://www.w3.org/2000/svg">
<path d="M14.9183 9.88133C15.0107 9.97371 15.0569 10.08 15.0569 10.2001C15.0569 10.3202 15.0107 10.4264 14.9183 10.5188L8.46047 16.9767C8.36808 17.069 8.26184 17.1152 8.14174 17.1152C8.02163 17.1152 7.91539 17.069 7.823 16.9767L1.36514 10.5188C1.27276 10.4264 1.22656 10.3202 1.22656 10.2001C1.22656 10.08 1.27276 9.97371 1.36514 9.88133L2.05805 9.18842C2.15043 9.09604 2.25668 9.04984 2.37678 9.04984C2.49688 9.04984 2.60313 9.09604 2.69552 9.18842L8.14174 14.6346L13.588 9.18842C13.6803 9.09604 13.7866 9.04984 13.9067 9.04984C14.0268 9.04984 14.133 9.09604 14.2254 9.18842L14.9183 9.88133Z" fill="black"/>
</svg>
