<svg width="78" height="78" viewBox="0 0 78 78" fill="none" xmlns="http://www.w3.org/2000/svg">
<g clip-path="url(#clip0_223_2796)">
<path d="M12.6467 66.3386C12.637 66.3483 12.6345 66.3605 12.626 66.369C12.5702 66.4272 12.535 66.5001 12.4925 66.5705C12.45 66.6409 12.4002 66.7053 12.3711 66.7805C12.3674 66.7927 12.3565 66.8012 12.3529 66.8121C12.3335 66.8679 12.342 66.9238 12.3322 66.9796C12.3152 67.0683 12.2958 67.1557 12.2995 67.2455C12.3031 67.322 12.325 67.3924 12.342 67.4677C12.3602 67.5442 12.3723 67.6206 12.4063 67.6947C12.4415 67.7736 12.4961 67.8404 12.5483 67.9108C12.5835 67.9581 12.603 68.014 12.6455 68.0565C12.6552 68.0662 12.6673 68.0686 12.6758 68.0783C12.7341 68.133 12.8069 68.167 12.8761 68.2094C12.9465 68.2532 13.0109 68.3029 13.0874 68.3321C13.0995 68.3357 13.108 68.3466 13.1189 68.3503L22.1343 71.3562C22.1367 71.3574 22.1392 71.3562 22.1404 71.3574C22.2618 71.3963 22.388 71.4193 22.5192 71.4193C22.6503 71.4193 22.7765 71.3963 22.8979 71.3574C22.9004 71.3562 22.9016 71.3574 22.904 71.3562C22.9149 71.3526 22.9222 71.3428 22.9319 71.3392C23.0582 71.2943 23.1711 71.2263 23.2743 71.1425C23.3131 71.1122 23.3447 71.077 23.3775 71.043C23.4442 70.975 23.5013 70.9022 23.5511 70.8184C23.5778 70.771 23.6033 70.7261 23.6251 70.6764C23.6397 70.646 23.6603 70.6205 23.6713 70.5889C23.6871 70.5428 23.6786 70.4967 23.6883 70.4505C23.7065 70.3692 23.7186 70.2903 23.7186 70.2053C23.7186 70.1203 23.7053 70.0414 23.6883 69.9601C23.6786 69.9139 23.6871 69.8678 23.6713 69.8217L20.6653 60.8075C20.6617 60.7954 20.6508 60.7869 20.6471 60.7759C20.6204 60.7007 20.5706 60.6363 20.5257 60.5659C20.4832 60.4955 20.448 60.4227 20.3922 60.3644C20.3837 60.3547 20.3813 60.3425 20.3715 60.334C20.3303 60.2928 20.2768 60.2746 20.2319 60.2418C20.1591 60.1871 20.0923 60.1301 20.0085 60.0937C19.9369 60.0621 19.8641 60.05 19.7888 60.0317C19.7123 60.0135 19.6407 59.9917 19.5618 59.988C19.4707 59.9844 19.3845 60.005 19.2935 60.0208C19.2376 60.0305 19.183 60.022 19.1272 60.0415C19.115 60.0451 19.1065 60.056 19.0956 60.0597C19.0191 60.0876 18.9548 60.1374 18.8844 60.1823C18.8152 60.2248 18.7423 60.2588 18.6853 60.3134C18.6755 60.3231 18.6622 60.3255 18.6537 60.3353L17.8306 61.1584C5.90032 48.32 6.17226 28.1744 18.6658 15.6808C26.8897 7.45702 38.9838 4.20585 50.2379 7.17051C50.2658 7.18022 50.2864 7.20086 50.3143 7.20814C50.5754 7.27856 50.8412 7.31255 51.1035 7.31255C51.6303 7.31255 52.1475 7.17536 52.6149 6.90706C53.3191 6.50158 53.8217 5.84722 54.0293 5.06417C54.2393 4.2799 54.1325 3.46165 53.7282 2.75994C53.3628 2.12743 52.7897 1.67096 52.1075 1.42936C52.037 1.39659 51.9776 1.34924 51.8999 1.32739C38.5322 -2.25157 24.1532 1.60661 14.3779 11.382C7.04029 18.7196 3 28.4743 3 38.8518C2.99879 48.825 6.73921 58.2156 13.5414 65.4439L12.6467 66.3386ZM18.9851 63.4347L20.601 68.2823L15.7522 66.6664L18.9851 63.4347ZM5.42806 38.853C5.42806 29.1238 9.21583 19.9773 16.0945 13.0986C25.2337 3.96061 38.6657 0.341595 51.1763 3.64375C51.2067 3.65468 51.2309 3.67775 51.2625 3.68624C51.4191 3.72874 51.549 3.82829 51.6291 3.96668C51.7105 4.10751 51.7323 4.27262 51.6886 4.43287C51.634 4.64169 51.4895 4.75095 51.4094 4.79708C51.2831 4.86992 51.1387 4.8857 50.9966 4.86142C50.9796 4.85535 50.9675 4.84321 50.9505 4.83836C38.8357 1.61147 25.808 5.10302 16.9528 13.9581C3.51475 27.3962 3.24159 49.0836 16.1176 62.8677L15.258 63.7272C8.91475 56.9578 5.42806 48.1768 5.42806 38.853Z" fill="#3D3D3D"/>
<path d="M70.1578 12.2547L71.0526 11.3599C71.0696 11.3429 71.0756 11.3211 71.0902 11.3029C71.1594 11.2264 71.2152 11.1378 71.2638 11.0419C71.2857 11.0006 71.3111 10.9654 71.3269 10.9217C71.3318 10.9083 71.3415 10.8974 71.3464 10.8852C71.3658 10.8294 71.3573 10.7736 71.367 10.7177C71.384 10.6291 71.4034 10.5417 71.3998 10.4518C71.3961 10.3753 71.3743 10.3049 71.3573 10.2297C71.3391 10.1532 71.3269 10.0767 71.2929 10.0026C71.2577 9.92373 71.2031 9.85696 71.1509 9.78655C71.1157 9.7392 71.0963 9.68335 71.0538 9.64086C71.0441 9.63115 71.0307 9.62872 71.0222 9.61901C70.9652 9.56438 70.8923 9.53039 70.8231 9.48789C70.7527 9.44419 70.6884 9.39441 70.6119 9.36528C70.5997 9.36164 70.5912 9.35071 70.5803 9.34707L61.5649 6.34235C61.5212 6.32778 61.4787 6.33506 61.435 6.32535C61.3513 6.30714 61.2687 6.29378 61.1813 6.295C61.0939 6.29378 61.0113 6.30835 60.9288 6.32535C60.8851 6.33506 60.8414 6.32778 60.7977 6.34235C60.7722 6.35084 60.754 6.37027 60.7285 6.38119C60.6471 6.41397 60.5743 6.46011 60.5002 6.5111C60.4407 6.55237 60.3825 6.59001 60.3327 6.63978C60.2781 6.69441 60.2368 6.75754 60.1931 6.82189C60.1457 6.89109 60.1032 6.95664 60.0705 7.03434C60.0595 7.06105 60.0389 7.08048 60.0292 7.1084C60.0134 7.15453 60.0219 7.20066 60.0122 7.2468C59.994 7.32814 59.9818 7.40705 59.9818 7.49203C59.9818 7.57701 59.9952 7.65593 60.0122 7.73726C60.0219 7.7834 60.0134 7.82953 60.0292 7.87566L63.0351 16.8898C63.04 16.9032 63.0497 16.9141 63.0545 16.9262C63.0703 16.9687 63.0958 17.0039 63.1177 17.0464C63.1662 17.1423 63.2221 17.2298 63.2913 17.3075C63.3071 17.3257 63.3131 17.3475 63.3289 17.3645C63.3483 17.3839 63.3738 17.39 63.3945 17.407C63.4734 17.4786 63.5608 17.5333 63.6567 17.5818C63.6955 17.6012 63.732 17.6243 63.772 17.6401C63.9044 17.6887 64.044 17.7202 64.1884 17.7202C64.3147 17.7202 64.4446 17.6996 64.5721 17.6571C64.5842 17.6535 64.5927 17.6425 64.6036 17.6389C64.6801 17.611 64.7445 17.5612 64.8149 17.5175C64.8841 17.4738 64.9569 17.4398 65.0152 17.3852C65.0249 17.3754 65.0371 17.373 65.0455 17.3633L65.8674 16.5414C77.7977 29.3785 77.5245 49.5266 65.0322 62.0189C56.8108 70.2403 44.7215 73.4927 33.4699 70.5305C33.4395 70.5196 33.4152 70.4965 33.3837 70.488C31.7557 70.0606 30.0961 71.0234 29.6675 72.6356C29.4575 73.4199 29.5643 74.2393 29.971 74.941C30.3353 75.5711 30.9071 76.0264 31.5857 76.2668C31.6561 76.3008 31.7168 76.3493 31.7969 76.3712C35.0942 77.2526 38.451 77.6799 41.7872 77.6799C51.9802 77.6799 61.9583 73.676 69.3238 66.3117C76.6614 58.9741 80.7017 49.2194 80.7017 38.8419C80.7004 28.8735 76.96 19.483 70.1578 12.2547ZM64.7153 14.2639L63.0995 9.41505L67.9483 11.0309L64.7153 14.2639ZM67.6047 64.5999C58.4655 73.7379 45.0323 77.3545 32.5254 74.056C32.495 74.0439 32.4707 74.0208 32.438 74.0123C32.2813 73.9698 32.1514 73.8703 32.0701 73.7319C31.9888 73.5923 31.9669 73.4271 32.0106 73.2669C32.0907 72.9634 32.393 72.7837 32.7026 72.8371C32.7196 72.842 32.7305 72.8553 32.7475 72.8602C35.7328 73.6554 38.7715 74.0439 41.7908 74.0439C51.0272 74.0439 60.0729 70.4164 66.7452 63.7428C80.1845 50.3035 80.4576 28.6173 67.5804 14.832L68.44 13.9725C74.7833 20.7432 78.27 29.5242 78.27 38.8468C78.2712 48.5748 74.4834 57.7213 67.6047 64.5999Z" fill="#3D3D3D"/>
<path d="M61.263 54.6314V26.7027C61.263 26.5449 61.2314 26.387 61.1695 26.2389C61.1076 26.0896 61.019 25.9549 60.9061 25.8432L56.0499 20.9858C55.9383 20.8729 55.8035 20.7843 55.6542 20.7224C55.5061 20.6605 55.3482 20.6289 55.1904 20.6289H28.4854C28.3276 20.6289 28.1698 20.6605 28.0217 20.7224C27.8723 20.7843 27.7376 20.8729 27.6259 20.9858L22.771 25.8432C22.6581 25.9549 22.5695 26.0896 22.5075 26.2389C22.4456 26.387 22.4141 26.5449 22.4141 26.7027V54.6314C22.4141 55.3028 22.9567 55.8455 23.6281 55.8455H60.049C60.7203 55.8455 61.263 55.3028 61.263 54.6314ZM54.6878 23.057L57.1183 25.4887H46.4288L45.8218 23.057H54.6878ZM40.3538 23.057H43.3196L43.9267 25.4887H39.7358L40.3538 23.057ZM39.4105 27.9167H44.2678V31.0987L42.2015 30.414C41.9539 30.3314 41.6831 30.3326 41.433 30.4152L39.4105 31.0938V27.9167ZM28.988 23.057H37.8504L37.2325 25.4887H26.5575L28.988 23.057ZM58.8349 53.4174H24.8421V27.9167H36.9824V32.7801C36.9824 32.8687 37.014 32.9477 37.0334 33.0314C37.0431 33.0763 37.0346 33.1213 37.0504 33.1662C37.054 33.1783 37.0637 33.1868 37.0674 33.1977C37.0917 33.2609 37.1257 33.3143 37.1584 33.3714C37.1973 33.4418 37.2386 33.5073 37.2896 33.5668C37.3308 33.6142 37.3733 33.6542 37.4207 33.6943C37.4862 33.7501 37.5554 33.795 37.6307 33.8351C37.6805 33.8606 37.7254 33.8885 37.7776 33.9092C37.9051 33.9565 38.0398 33.9869 38.1794 33.9893C38.1855 33.9893 38.1904 33.9929 38.1964 33.9929H38.1989C38.1989 33.9929 38.2001 33.9929 38.2013 33.9929C38.3288 33.9929 38.4599 33.9723 38.5874 33.9298L41.8215 32.8432L45.0994 33.931C45.1613 33.9517 45.222 33.9432 45.2827 33.9529C45.3507 33.965 45.4102 33.9929 45.4806 33.9929C45.5 33.9929 45.5134 33.9832 45.5328 33.982C45.6129 33.9784 45.687 33.9553 45.7647 33.9359C45.8412 33.9164 45.9201 33.9055 45.9905 33.8715C46.0573 33.8424 46.1095 33.7938 46.1678 33.7513C46.2357 33.704 46.3049 33.6627 46.362 33.602C46.4093 33.5522 46.4385 33.4891 46.4785 33.4296C46.5271 33.3556 46.5769 33.2852 46.6084 33.2014C46.6145 33.1856 46.6279 33.1759 46.6327 33.1601C46.6546 33.0958 46.6461 33.0339 46.657 32.9695C46.6679 32.9039 46.6946 32.8457 46.6946 32.7789V27.9155H58.8337L58.8349 53.4174Z" fill="#3D3D3D"/>
<path d="M38.2075 44.918H28.4953C27.8239 44.918 27.2812 45.4606 27.2812 46.132C27.2812 46.8034 27.8239 47.346 28.4953 47.346H38.2075C38.8789 47.346 39.4215 46.8034 39.4215 46.132C39.4215 45.4606 38.8789 44.918 38.2075 44.918Z" fill="#3D3D3D"/>
<path d="M33.3514 48.5605H28.4953C27.8239 48.5605 27.2812 49.1032 27.2812 49.7746C27.2812 50.4459 27.8239 50.9886 28.4953 50.9886H33.3514C34.0228 50.9886 34.5654 50.4459 34.5654 49.7746C34.5654 49.1032 34.0228 48.5605 33.3514 48.5605Z" fill="#3D3D3D"/>
<path d="M43.0547 46.132V49.7741C43.0547 50.4454 43.5974 50.9881 44.2687 50.9881H47.9108C48.5822 50.9881 49.1248 50.4454 49.1248 49.7741V46.132C49.1248 45.4606 48.5822 44.918 47.9108 44.918H44.2687C43.5974 44.918 43.0547 45.4606 43.0547 46.132ZM45.4827 47.346H46.6968V48.5601H45.4827V47.346Z" fill="#3D3D3D"/>
<path d="M51.5578 50.9881H55.1999C55.8712 50.9881 56.4139 50.4454 56.4139 49.7741V46.132C56.4139 45.4606 55.8712 44.918 55.1999 44.918H51.5578C50.8864 44.918 50.3438 45.4606 50.3438 46.132V49.7741C50.3438 50.4454 50.8864 50.9881 51.5578 50.9881ZM52.7718 47.346H53.9858V48.5601H52.7718V47.346Z" fill="#3D3D3D"/>
</g>
<defs>
<clipPath id="clip0_223_2796">
<rect width="77.6978" height="77.6978" fill="white" transform="translate(3)"/>
</clipPath>
</defs>
</svg>
