<svg width="16" height="8" viewBox="0 0 16 8" fill="none" xmlns="http://www.w3.org/2000/svg">
<path d="M14.758 0.287377L8.51163 6.31096C8.37535 6.44307 8.19137 6.51717 7.99966 6.51717C7.80795 6.51717 7.62397 6.44307 7.48768 6.31096L1.24131 0.288685C1.10418 0.156645 0.919603 0.0826581 0.727336 0.0826581C0.53507 0.0826582 0.350495 0.156645 0.21336 0.288685C0.145832 0.353189 0.0921653 0.430284 0.0555222 0.515427C0.0188792 0.600572 2.95491e-07 0.692042 3.03905e-07 0.784446C3.1232e-07 0.87685 0.0188793 0.968318 0.0555223 1.05346C0.0921653 1.13861 0.145832 1.2157 0.21336 1.28021L6.4584 7.30248C6.86974 7.69821 7.42318 7.91992 7.99966 7.91992C8.57613 7.91992 9.12958 7.69821 9.54092 7.30248L15.786 1.2802C15.8537 1.21568 15.9075 1.1385 15.9443 1.05324C15.9811 0.967974 16 0.876352 16 0.78379C16 0.691228 15.9811 0.599607 15.9443 0.514343C15.9075 0.429079 15.8537 0.351901 15.786 0.287377C15.6488 0.155336 15.4642 0.0813499 15.272 0.0813499C15.0797 0.0813499 14.8951 0.155336 14.758 0.287377Z" fill="#21262D"/>
</svg>
