<svg width="22" height="26" viewBox="0 0 22 26" fill="none" xmlns="http://www.w3.org/2000/svg">
<path d="M21.5047 18.6264V20.4002C21.5047 20.6404 21.417 20.8483 21.2414 21.0238C21.0659 21.1993 20.858 21.2871 20.6178 21.2871H1.10567C0.86546 21.2871 0.657589 21.1993 0.482053 21.0238C0.306518 20.8483 0.21875 20.6404 0.21875 20.4002V18.6264C0.21875 18.3862 0.306518 18.1783 0.482053 18.0027C0.657589 17.8272 0.86546 17.7394 1.10567 17.7394H20.6178C20.858 17.7394 21.0659 17.8272 21.2414 18.0027C21.417 18.1783 21.5047 18.3862 21.5047 18.6264ZM21.5047 11.531V13.3049C21.5047 13.5451 21.417 13.7529 21.2414 13.9285C21.0659 14.104 20.858 14.1918 20.6178 14.1918H1.10567C0.86546 14.1918 0.657589 14.104 0.482053 13.9285C0.306518 13.7529 0.21875 13.5451 0.21875 13.3049V11.531C0.21875 11.2908 0.306518 11.083 0.482053 10.9074C0.657589 10.7319 0.86546 10.6441 1.10567 10.6441H20.6178C20.858 10.6441 21.0659 10.7319 21.2414 10.9074C21.417 11.083 21.5047 11.2908 21.5047 11.531ZM21.5047 4.43571V6.20954C21.5047 6.44974 21.417 6.65762 21.2414 6.83315C21.0659 7.00869 20.858 7.09645 20.6178 7.09645H1.10567C0.86546 7.09645 0.657589 7.00869 0.482053 6.83315C0.306518 6.65762 0.21875 6.44974 0.21875 6.20954V4.43571C0.21875 4.1955 0.306518 3.98763 0.482053 3.81209C0.657589 3.63656 0.86546 3.54879 1.10567 3.54879H20.6178C20.858 3.54879 21.0659 3.63656 21.2414 3.81209C21.417 3.98763 21.5047 4.1955 21.5047 4.43571Z" fill="#4F4F4F"/>
</svg>
