<svg width="43" height="42" viewBox="0 0 43 42" fill="none" xmlns="http://www.w3.org/2000/svg">
<rect x="0.925635" y="0.59751" width="40.6307" height="40.6307" rx="20.3154" stroke="#F4F4F4" stroke-width="1.19502"/>
<g clip-path="url(#clip0_405_29176)">
<g clip-path="url(#clip1_405_29176)">
<g clip-path="url(#clip2_405_29176)">
<path d="M16.954 27.5701H13.7332V17.1982H16.954V27.5701ZM15.3418 15.7834C14.3119 15.7834 13.4766 14.9303 13.4766 13.9004C13.4766 13.4057 13.6731 12.9313 14.0229 12.5815C14.3727 12.2317 14.8471 12.0352 15.3418 12.0352C15.8365 12.0352 16.311 12.2317 16.6608 12.5815C17.0106 12.9313 17.2071 13.4057 17.2071 13.9004C17.2071 14.9303 16.3714 15.7834 15.3418 15.7834ZM29.0084 27.5701H25.7945V22.5211C25.7945 21.3178 25.7702 19.7747 24.12 19.7747C22.4454 19.7747 22.1888 21.082 22.1888 22.4344V27.5701H18.9715V17.1982H22.0605V18.613H22.1056C22.5356 17.7981 23.5859 16.9381 25.153 16.9381C28.4126 16.9381 29.0118 19.0846 29.0118 21.8727V27.5701H29.0084Z" fill="black"/>
</g>
</g>
</g>
<defs>
<clipPath id="clip0_405_29176">
<rect width="15.5353" height="17.9253" fill="white" transform="translate(13.4766 11.9492)"/>
</clipPath>
<clipPath id="clip1_405_29176">
<rect width="15.5353" height="17.9253" fill="white" transform="translate(13.4766 11.9492)"/>
</clipPath>
<clipPath id="clip2_405_29176">
<rect width="15.5353" height="17.7546" fill="white" transform="translate(13.4766 12.0352)"/>
</clipPath>
</defs>
</svg>
