<svg width="121" height="180" viewBox="0 0 121 180" fill="none" xmlns="http://www.w3.org/2000/svg">
<path opacity="0.2" d="M93.5684 34.5918H87.8759V40.9334C87.8759 46.0059 84.172 50.1359 79.6153 50.1359C75.0587 50.1359 71.3547 46.0096 71.3547 40.9334V34.5918H65.6622C61.1089 34.5918 57.4016 30.4655 57.4016 25.3892C57.4016 20.313 61.1056 16.1867 65.6622 16.1867H71.3547V9.84511C71.3547 4.77259 75.0587 0.642578 79.6153 0.642578C84.172 0.642578 87.8759 4.76888 87.8759 9.84511V16.1867H93.5684C98.1218 16.1867 101.829 20.313 101.829 25.3892C101.829 30.4655 98.1251 34.5918 93.5684 34.5918ZM93.5684 20.6395H85.8774C84.7749 20.6395 83.8789 19.6414 83.8789 18.4131V9.84511C83.8789 7.22536 81.9669 5.09542 79.6153 5.09542C77.2637 5.09542 75.3518 7.22536 75.3518 9.84511V18.4131C75.3518 19.6414 74.4558 20.6395 73.3533 20.6395H65.6622C63.3106 20.6395 61.3987 22.7695 61.3987 25.3892C61.3987 28.009 63.3106 30.1389 65.6622 30.1389H73.3533C74.4558 30.1389 75.3518 31.1371 75.3518 32.3654V40.9334C75.3518 43.5531 77.2637 45.6831 79.6153 45.6831C81.9669 45.6831 83.8789 43.5531 83.8789 40.9334V32.3654C83.8789 31.1371 84.7749 30.1389 85.8774 30.1389H93.5684C95.92 30.1389 97.832 28.009 97.832 25.3892C97.832 22.7695 95.92 20.6395 93.5684 20.6395ZM48.4282 61.7949C45.4371 62.0287 42.1661 62.2142 38.8053 62.2142C28.6727 62.2142 17.794 60.5481 11.7684 53.6314C3.17805 43.7683 0.000386596 34.8255 1.14954 23.7306C1.26279 22.6211 2.09884 21.7787 3.10144 21.7602C4.35052 21.7379 5.62293 21.6971 6.97194 21.6526C17.0579 21.326 28.4895 20.9624 36.95 27.4561C46.1432 34.5101 51.6125 46.7258 50.8797 58.2698C52.7217 60.1511 54.3838 62.1252 55.8661 64.3071C60.7592 71.5021 63.4838 80.5525 64.8095 94.2079C66.3051 92 68.1238 89.8367 70.1823 87.8626C70.2689 87.7772 70.3621 87.6993 70.4487 87.614C69.7292 76.159 75.1586 64.0473 84.2786 57.0489C92.6791 50.6034 104.024 50.9671 114.033 51.2899C115.369 51.3345 116.635 51.3716 117.871 51.3975C118.873 51.4161 119.706 52.2584 119.823 53.3679C120.962 64.3813 117.811 73.261 109.28 83.0498C103.298 89.9183 92.5025 91.5733 82.4433 91.5733C79.1024 91.5733 75.8481 91.3915 72.8736 91.154C72.8436 91.18 72.8136 91.2096 72.787 91.2356C69.1563 94.72 66.2918 98.9427 65.076 102.583V131.478C66.3384 129.849 67.7474 128.335 69.2896 126.933C69.0131 120.454 72.1075 113.678 77.2371 109.741C82.0602 106.041 88.6787 106.253 93.9948 106.424C94.7076 106.446 95.4004 106.468 96.0766 106.483C97.0792 106.501 97.9119 107.344 98.0285 108.453C98.6747 114.706 96.826 119.945 92.0329 125.448C88.5521 129.445 82.4066 130.398 76.7274 130.398C75.0886 130.398 73.4965 130.317 72.0109 130.209C69.163 132.758 66.8347 135.749 65.0793 139.111V159.78C68.1804 159.891 71.2948 161.13 74.5424 163.494C82.4666 162.789 87.7427 167.342 89.8178 176.704C89.9644 177.368 89.8312 178.07 89.4514 178.611C89.0717 179.15 88.4921 179.465 87.8793 179.465L40.4907 179.498C39.9244 179.498 39.3815 179.231 39.0018 178.76C38.6221 178.289 38.4422 177.662 38.5022 177.031C38.8819 173.134 40.2109 170.162 42.4493 168.192C44.8175 166.106 48.0951 165.26 52.2021 165.676C55.2532 162.874 58.1844 161.078 61.0856 160.269V112.821C59.4068 110.134 57.7047 108.231 55.9094 107.021C53.8909 107.177 51.6958 107.292 49.4475 107.292C42.2427 107.292 34.4784 106.093 30.1283 101.099C23.9928 94.0557 21.7278 87.6511 22.5505 79.6879C22.6638 78.5784 23.4998 77.7361 24.5024 77.7175C25.3751 77.7027 26.2744 77.673 27.1971 77.6433C34.3285 77.4133 42.4093 77.1535 48.4748 81.8104C54.9667 86.7902 58.8705 95.3768 58.4775 103.559C59.3735 104.216 60.2429 104.999 61.0889 105.911V97.4919C59.5834 78.6081 55.8494 69.4686 48.4282 61.7949ZM34.6849 31.1223C27.297 25.456 16.5616 25.8011 7.08852 26.1054C6.36571 26.1277 5.6629 26.1499 4.9734 26.1722C4.53373 34.9369 7.49156 42.3286 14.6396 50.5329C20.6786 57.4645 33.3293 58.1659 43.9182 57.6352C40.534 54.7928 36.5736 51.943 31.947 48.6182C29.3089 46.7183 26.5809 44.7591 23.5931 42.5364C22.6738 41.8536 22.4273 40.4695 23.0402 39.4491C23.653 38.4249 24.8955 38.1503 25.8115 38.8331C28.7726 41.0373 31.4906 42.9891 34.1154 44.8778C39.0384 48.4178 43.262 51.4606 46.8927 54.5665C46.3564 45.6645 41.7098 36.5139 34.6849 31.1223ZM106.419 79.9477C113.504 71.8138 116.438 64.4889 116.009 55.8021C115.329 55.7836 114.636 55.7613 113.927 55.7391C104.53 55.4348 93.8782 55.0934 86.5536 60.7151C79.5387 66.0956 74.9154 75.2573 74.4325 84.1333C77.7334 81.4357 81.2641 78.9346 84.7183 76.493C88.0991 74.107 91.2901 71.8509 94.0248 69.58C94.9074 68.8452 96.1599 69.0456 96.8227 70.029C97.4822 71.0123 97.3024 72.4075 96.4197 73.146C93.5651 75.5245 90.3075 77.8214 86.86 80.2557C83.7789 82.4301 80.6312 84.6528 77.6801 87.0017C88.1191 87.5064 100.487 86.7568 106.419 79.9477ZM94.1613 110.891C94.0681 110.887 93.9781 110.884 93.8849 110.884C88.9018 110.724 83.256 110.542 79.5087 113.418C76.3877 115.812 74.196 119.656 73.5098 123.589L83.4958 115.915C84.4051 115.218 85.6476 115.47 86.2771 116.483C86.9066 117.496 86.6768 118.88 85.7675 119.582L77.4636 125.964C81.6905 125.894 86.7068 125.185 89.1683 122.361C92.6225 118.387 94.148 114.947 94.1613 110.891ZM46.2032 85.4766C41.2102 81.6472 33.8256 81.8846 27.307 82.0924C27.0006 82.1036 26.6941 82.111 26.391 82.1221C26.2445 87.8143 28.2363 92.5381 32.9929 97.9965C36.7135 102.268 44.6476 102.939 50.52 102.839L38.672 93.4361C37.7727 92.7236 37.5628 91.3321 38.2024 90.3302C38.8419 89.3283 40.091 89.0945 40.9903 89.807L54.3905 100.442C53.7943 94.7237 50.7298 88.9498 46.2032 85.4766ZM52.5852 170.199C49.1677 169.721 46.5895 170.222 44.9241 171.684C44.0214 172.478 43.3586 173.602 42.9356 175.042L85.1746 175.016C83.2627 169.472 79.8119 167.294 74.2559 168.003C73.7729 168.066 73.2933 167.928 72.8936 167.624C66.2485 162.522 60.989 163.097 54.144 169.676C53.711 170.088 53.1481 170.277 52.5852 170.199Z" fill="#8F7D6A"/>
</svg>
