<svg width="32" height="32" viewBox="0 0 32 32" fill="none" xmlns="http://www.w3.org/2000/svg">
<path d="M15.9974 26.666C18.8264 26.666 21.5395 25.5422 23.5399 23.5418C25.5403 21.5414 26.6641 18.8283 26.6641 15.9993C26.6641 13.1704 25.5403 10.4573 23.5399 8.45688C21.5395 6.45649 18.8264 5.33268 15.9974 5.33268C13.1684 5.33268 10.4553 6.45649 8.45492 8.45688C6.45454 10.4573 5.33073 13.1704 5.33073 15.9993C5.33073 18.8283 6.45454 21.5414 8.45492 23.5418C10.4553 25.5422 13.1684 26.666 15.9974 26.666ZM15.9974 2.66602C17.7484 2.66602 19.4822 3.01089 21.0998 3.68096C22.7175 4.35102 24.1874 5.33314 25.4255 6.57126C26.6636 7.80937 27.6457 9.27923 28.3158 10.8969C28.9859 12.5146 29.3307 14.2484 29.3307 15.9993C29.3307 19.5356 27.926 22.927 25.4255 25.4274C22.925 27.9279 19.5336 29.3327 15.9974 29.3327C8.62406 29.3327 2.66406 23.3327 2.66406 15.9993C2.66406 12.4631 4.06882 9.07174 6.56931 6.57126C9.06979 4.07077 12.4612 2.66602 15.9974 2.66602ZM16.6641 9.33268V16.3327L22.6641 19.8927L21.6641 21.5327L14.6641 17.3327V9.33268H16.6641Z" fill="#454545"/>
</svg>
