<svg width="215" height="217" viewBox="0 0 215 217" fill="none" xmlns="http://www.w3.org/2000/svg">
<g opacity="0.2" clip-path="url(#clip0_377_2993)">
<path d="M78.8886 124.623C79.2302 123.339 79.186 121.982 78.7619 120.723C78.3377 119.465 77.5526 118.361 76.5057 117.552C75.4588 116.742 74.1973 116.264 72.8806 116.177C71.5638 116.09 70.2511 116.399 69.1083 117.063C67.9656 117.728 67.0441 118.719 66.4605 119.911C65.8769 121.103 65.6573 122.443 65.8295 123.761C66.0018 125.079 66.5581 126.316 67.4281 127.315C68.2982 128.314 69.4428 129.031 70.7174 129.375C72.4265 129.835 74.2467 129.592 75.7785 128.701C77.3104 127.81 78.4289 126.344 78.8886 124.623ZM71.7801 125.381C71.2898 125.248 70.8496 124.972 70.5149 124.588C70.1803 124.204 69.9663 123.728 69.9001 123.221C69.8339 122.714 69.9183 122.199 70.1428 121.74C70.3672 121.282 70.7217 120.901 71.1612 120.645C71.6007 120.389 72.1056 120.271 72.612 120.304C73.1185 120.338 73.6037 120.522 74.0063 120.833C74.409 121.144 74.711 121.569 74.8741 122.053C75.0372 122.537 75.0542 123.059 74.9228 123.553C74.746 124.214 74.3159 124.779 73.7267 125.121C73.1375 125.464 72.4374 125.557 71.7801 125.381Z" fill="#8F7D6A"/>
<path d="M83.4389 152.793C85.0076 153.216 86.6657 153.161 88.2036 152.636C89.7415 152.11 91.09 151.136 92.0787 149.838C93.0673 148.54 93.6517 146.976 93.7579 145.344C93.8642 143.711 93.4874 142.084 92.6754 140.667C91.8634 139.25 90.6525 138.108 89.1959 137.384C87.7394 136.66 86.1025 136.388 84.4923 136.602C82.8822 136.815 81.371 137.505 80.15 138.584C78.929 139.662 78.0529 141.082 77.6325 142.662C77.0715 144.781 77.3678 147.037 78.4563 148.937C79.5448 150.836 81.3367 152.223 83.4389 152.793ZM86.6268 140.808C87.4111 141.019 88.1156 141.461 88.651 142.076C89.1864 142.691 89.5287 143.452 89.6347 144.263C89.7407 145.074 89.6056 145.898 89.2464 146.632C88.8873 147.366 88.3202 147.976 87.617 148.385C86.9137 148.794 86.1059 148.983 85.2956 148.93C84.4853 148.876 83.709 148.582 83.0648 148.084C82.4205 147.586 81.9374 146.907 81.6763 146.132C81.4153 145.358 81.3882 144.522 81.5983 143.732C81.8812 142.673 82.5695 141.771 83.5122 141.223C84.4549 140.674 85.575 140.525 86.6268 140.808Z" fill="#8F7D6A"/>
<path d="M52.966 160.803C52.6595 161.955 52.699 163.173 53.0797 164.302C53.4603 165.432 54.165 166.423 55.1045 167.149C56.044 167.875 57.1761 168.304 58.3578 168.382C59.5395 168.46 60.7176 168.184 61.7431 167.587C62.7687 166.991 63.5956 166.101 64.1194 165.031C64.6432 163.961 64.8402 162.759 64.6857 161.576C64.5311 160.394 64.0318 159.284 63.251 158.387C62.4702 157.49 61.4429 156.846 60.2991 156.538C58.7653 156.126 57.1319 156.343 55.7572 157.143C54.3824 157.942 53.3786 159.258 52.966 160.803ZM60.5671 162.854C60.4707 163.216 60.27 163.542 59.9902 163.789C59.7103 164.036 59.364 164.194 58.995 164.243C58.626 164.292 58.2509 164.23 57.9171 164.064C57.5833 163.898 57.3058 163.636 57.1197 163.311C56.9336 162.987 56.8473 162.614 56.8717 162.24C56.896 161.866 57.0299 161.507 57.2565 161.21C57.4831 160.912 57.7921 160.689 58.1445 160.569C58.497 160.448 58.8769 160.436 59.2364 160.533C59.7182 160.663 60.1289 160.981 60.3783 161.416C60.6278 161.851 60.6957 162.369 60.5671 162.854Z" fill="#8F7D6A"/>
<path d="M85.7543 188.028C87.2576 188.434 88.8467 188.381 90.3204 187.877C91.7942 187.373 93.0866 186.44 94.0341 185.197C94.9815 183.953 95.5416 182.454 95.6434 180.889C95.7452 179.325 95.3841 177.765 94.6059 176.407C93.8277 175.049 92.6673 173.955 91.2714 173.261C89.8756 172.568 88.3069 172.307 86.7638 172.512C85.2207 172.716 83.7726 173.377 82.6024 174.411C81.4323 175.445 80.5927 176.805 80.1899 178.319C79.6521 180.35 79.936 182.512 80.9792 184.333C82.0223 186.153 83.7396 187.482 85.7543 188.028ZM88.765 176.709C89.484 176.903 90.1298 177.307 90.6205 177.871C91.1113 178.435 91.4252 179.133 91.5223 179.876C91.6195 180.619 91.4956 181.375 91.1664 182.048C90.8372 182.72 90.3174 183.279 89.6727 183.654C89.0281 184.029 88.2876 184.203 87.5448 184.154C86.802 184.105 86.0904 183.835 85.4999 183.379C84.9093 182.922 84.4664 182.3 84.2271 181.589C83.9879 180.879 83.963 180.114 84.1556 179.39C84.415 178.419 85.0459 177.592 85.91 177.089C86.7742 176.586 87.8009 176.45 88.765 176.709Z" fill="#8F7D6A"/>
<path d="M110.575 165.29C110.969 163.808 110.918 162.242 110.428 160.79C109.939 159.338 109.033 158.064 107.825 157.131C106.617 156.197 105.162 155.645 103.642 155.545C102.123 155.444 100.608 155.8 99.2897 156.567C97.9711 157.334 96.9079 158.477 96.2345 159.853C95.5611 161.229 95.3077 162.774 95.5064 164.295C95.7052 165.816 96.3471 167.243 97.3509 168.396C98.3548 169.549 99.6756 170.376 101.146 170.773C103.118 171.303 105.219 171.024 106.986 169.996C108.754 168.968 110.044 167.275 110.575 165.29ZM99.6687 162.346C99.8526 161.655 100.236 161.034 100.77 160.562C101.304 160.09 101.965 159.788 102.67 159.695C103.374 159.601 104.09 159.721 104.728 160.037C105.365 160.354 105.895 160.853 106.25 161.473C106.605 162.093 106.77 162.805 106.724 163.52C106.677 164.234 106.421 164.918 105.989 165.486C105.556 166.054 104.966 166.48 104.294 166.71C103.621 166.94 102.895 166.964 102.209 166.778C101.289 166.529 100.505 165.922 100.029 165.091C99.5528 164.26 99.4232 163.273 99.6687 162.346Z" fill="#8F7D6A"/>
<path d="M91.3268 122.452C92.6014 122.796 93.9486 122.751 95.1981 122.324C96.4477 121.897 97.5433 121.106 98.3466 120.051C99.1499 118.997 99.6247 117.726 99.711 116.399C99.7974 115.073 99.4913 113.751 98.8315 112.599C98.1717 111.448 97.1879 110.52 96.0044 109.932C94.821 109.344 93.491 109.123 92.1827 109.296C90.8745 109.47 89.6467 110.03 88.6546 110.907C87.6625 111.783 86.9507 112.936 86.6092 114.22C86.1534 115.942 86.3941 117.775 87.2785 119.319C88.1629 120.862 89.6188 121.988 91.3268 122.452ZM93.7177 113.463C94.2079 113.595 94.6482 113.871 94.9828 114.255C95.3175 114.64 95.5314 115.116 95.5977 115.622C95.6639 116.129 95.5795 116.645 95.355 117.103C95.1305 117.562 94.7761 117.943 94.3366 118.198C93.8971 118.454 93.3922 118.573 92.8858 118.539C92.3793 118.506 91.8941 118.322 91.4915 118.011C91.0888 117.699 90.7868 117.275 90.6237 116.791C90.4606 116.307 90.4436 115.785 90.575 115.291C90.7517 114.629 91.1819 114.065 91.7711 113.722C92.3603 113.38 93.0604 113.286 93.7177 113.463Z" fill="#8F7D6A"/>
<path d="M107.059 100.803C100.52 104.557 108.826 123.321 114.762 133.816C118.84 141.026 123.381 147.425 127.547 151.836C130.667 155.138 133.305 157.075 135.519 157.672C136.098 157.856 136.707 157.919 137.311 157.858C137.915 157.798 138.5 157.614 139.031 157.32L177.756 135.088C185.154 130.795 190.563 123.726 192.8 115.426C195.037 107.126 193.919 98.272 189.692 90.8001C185.465 83.3282 178.472 77.847 170.243 75.5556C162.014 73.2641 153.22 74.349 145.783 78.5729L107.058 100.805L107.059 100.803ZM147.817 82.1644C151.033 80.3042 154.582 79.1017 158.26 78.6259C161.938 78.1501 165.674 78.4103 169.252 79.3916C172.83 80.3729 176.181 82.056 179.112 84.3444C182.044 86.6328 184.498 89.4815 186.334 92.7272C188.17 95.973 189.352 99.5519 189.813 103.259C190.273 106.966 190.003 110.728 189.017 114.329C188.032 117.93 186.35 121.3 184.069 124.246C181.788 127.191 178.952 129.654 175.724 131.493L141.415 151.19C141.257 148.945 140.85 146.724 140.2 144.571C138.557 138.712 135.405 131.515 131.327 124.305C127.248 117.096 122.708 110.696 118.541 106.286C117.033 104.625 115.344 103.141 113.506 101.861L147.817 82.1644ZM109.096 104.403C109.609 104.318 111.849 105.081 116.021 109.623C119.841 113.782 124.011 119.724 127.762 126.354C131.513 132.985 134.463 139.627 136.068 145.058C137.82 150.99 137.33 153.32 136.997 153.721C136.482 153.804 134.242 153.041 130.071 148.5C126.251 144.341 122.082 138.399 118.33 131.769C114.579 125.139 111.63 118.496 110.025 113.066C108.27 107.136 108.76 104.806 109.096 104.403Z" fill="#8F7D6A"/>
<path d="M64.7649 97.3235C65.3749 98.402 66.3831 99.0805 67.6908 99.4335C74.3696 101.236 88.8238 94.5663 97.5362 89.5647C104.693 85.4563 111.046 80.8822 115.425 76.6851C120.654 71.6719 122.435 67.8879 120.868 65.1166L106.481 39.686C106.212 39.2094 98.4702 25.0787 97.9451 24.9338C97.4199 24.7889 104.154 38.6416 103.681 38.9132C103.208 39.1848 102.861 39.6345 102.718 40.1635C102.574 40.6925 102.644 41.2574 102.914 41.7339L114.787 62.7181C107.403 63.0044 95.6137 68.5603 88.0967 72.8758C80.94 76.9846 74.5871 81.5584 70.2085 85.7552C68.5602 87.2748 67.0867 88.9764 65.8158 90.8277L46.263 56.2661C42.6546 49.8879 41.6396 42.3494 43.4312 35.2334C45.2227 28.1174 49.6813 21.9773 55.8711 18.1022C62.0608 14.2272 69.5002 12.9185 76.6273 14.4511C83.7544 15.9836 90.0149 20.2381 94.0945 26.3214C94.5668 27.7697 95.9102 30.4978 96.4396 30.5936C103.374 45.0132 104.267 41.0064 104.712 40.7018C105.157 40.3971 101.622 31.5288 97.7865 25.5299C104.579 39.7458 97.7882 24.4467 97.4953 23.9923C92.8176 17.0274 85.6439 12.1583 77.4793 10.4064C69.3148 8.65455 60.794 10.1562 53.7048 14.5962C46.6156 19.0362 41.5089 26.0695 39.4563 34.2204C37.4037 42.3714 38.5646 51.0063 42.6955 58.3136L64.7649 97.3235ZM73.5203 88.2961C77.6489 84.4479 83.5473 80.2475 90.129 76.4691C96.7107 72.6907 103.305 69.7192 108.696 68.1022C114.583 66.3371 116.896 66.8297 117.296 67.1664C117.379 67.6839 116.622 69.9407 112.113 74.1431C107.984 77.9913 102.086 82.1914 95.5043 85.9701C88.9225 89.7488 82.3306 92.7199 76.938 94.3368C71.0492 96.1014 68.7364 95.6081 68.3378 95.2728C68.2541 94.7553 69.0112 92.4987 73.5203 88.2961Z" fill="#8F7D6A"/>
</g>
<defs>
<clipPath id="clip0_377_2993">
<rect width="175.263" height="176.379" fill="white" transform="matrix(0.965448 0.260594 -0.257054 0.966397 45.7969 0)"/>
</clipPath>
</defs>
</svg>
