<svg width="18" height="24" viewBox="0 0 18 24" fill="none" xmlns="http://www.w3.org/2000/svg">
<path d="M5.25 23.248V0.748047M5.25 23.248L0.75 18.748M5.25 23.248L9.75 18.748M12.75 14.248H16.35C16.4971 14.248 16.6419 14.284 16.7719 14.3529C16.9018 14.4218 17.0129 14.5215 17.0954 14.6433C17.1779 14.765 17.2293 14.9051 17.2451 15.0514C17.2609 15.1976 17.2406 15.3455 17.186 15.482L12.814 22.013C12.7592 22.1497 12.7388 22.2977 12.7545 22.444C12.7702 22.5904 12.8215 22.7307 12.904 22.8526C12.9865 22.9745 13.0977 23.0743 13.2278 23.1432C13.3578 23.2122 13.5028 23.2482 13.65 23.248H17.25M17.25 9.74805V3.00005C17.25 2.40331 17.0129 1.83101 16.591 1.40906C16.169 0.9871 15.5967 0.750047 15 0.750047C14.4033 0.750047 13.831 0.9871 13.409 1.40906C12.9871 1.83101 12.75 2.40331 12.75 3.00005V9.75005M12.75 6.74805H17.25" stroke="#454545" stroke-width="1.5" stroke-linecap="round" stroke-linejoin="round"/>
</svg>
