<svg width="25" height="22" viewBox="0 0 25 22" fill="none" xmlns="http://www.w3.org/2000/svg">
<g clip-path="url(#clip0_405_29156)">
<path opacity="0.4" d="M15.3409 11.9658H8.77433L5.90817 14.1154C5.85819 14.1527 5.79881 14.1753 5.7367 14.1807C5.67458 14.1862 5.61217 14.1742 5.55647 14.1462C5.50077 14.1182 5.45397 14.0752 5.42133 14.022C5.38868 13.9689 5.37147 13.9077 5.37163 13.8454V11.9692C4.78425 11.9687 4.22107 11.7351 3.80573 11.3198C3.39038 10.9044 3.1568 10.3412 3.15625 9.75385V4.21538C3.1568 3.628 3.39038 3.06482 3.80573 2.64948C4.22107 2.23413 4.78425 2.00055 5.37163 2H15.3409C15.9283 2.00055 16.4914 2.23413 16.9068 2.64948C17.3221 3.06482 17.5557 3.628 17.5562 4.21538V9.75385C17.5562 10.0446 17.4988 10.3325 17.3875 10.6011C17.2761 10.8696 17.1128 11.1136 16.9071 11.319C16.7013 11.5245 16.4571 11.6873 16.1883 11.7983C15.9196 11.9093 15.6316 11.9662 15.3409 11.9658Z" fill="black"/>
<path d="M23.097 9.75445V15.2929C23.0964 15.8803 22.8629 16.4435 22.4475 16.8588C22.0322 17.2742 21.469 17.5077 20.8816 17.5083H19.7739V19.3879C19.7741 19.4503 19.7569 19.5114 19.7242 19.5646C19.6916 19.6177 19.6448 19.6607 19.5891 19.6887C19.5334 19.7167 19.471 19.7287 19.4089 19.7233C19.3467 19.7178 19.2874 19.6952 19.2374 19.6579L16.3712 17.5083H12.0201C11.4327 17.5077 10.8695 17.2742 10.4542 16.8588C10.0388 16.4435 9.80524 15.8803 9.80469 15.2929V13.0775H15.3431C16.2241 13.0762 17.0685 12.7256 17.6914 12.1027C18.3143 11.4798 18.6649 10.6354 18.6662 9.75445V7.53906H20.8816C21.469 7.53961 22.0322 7.77319 22.4475 8.18854C22.8629 8.60389 23.0964 9.16706 23.097 9.75445Z" fill="black"/>
</g>
<defs>
<clipPath id="clip0_405_29156">
<rect width="19.9385" height="17.7231" fill="white" transform="translate(3.15625 2)"/>
</clipPath>
</defs>
</svg>
