<svg width="79" height="78" viewBox="0 0 79 78" fill="none" xmlns="http://www.w3.org/2000/svg">
<g clip-path="url(#clip0_360_1450)">
<path d="M68.3724 39.5613C68.3724 21.9476 54.7049 9.98047 39.4974 9.98047C24.4503 9.98047 10.6224 21.6909 10.6224 39.7538C8.6974 40.8446 7.41406 42.898 7.41406 45.2721V51.6888C7.41406 55.218 10.3016 58.1055 13.8307 58.1055H17.0391V38.5346C17.0391 26.1184 27.0811 16.0763 39.4974 16.0763C51.9136 16.0763 61.9557 26.1184 61.9557 38.5346V61.3138H36.2891V67.7305H61.9557C65.4849 67.7305 68.3724 64.843 68.3724 61.3138V57.3996C70.2653 56.4051 71.5807 54.448 71.5807 52.138V44.7588C71.5807 42.513 70.2653 40.5559 68.3724 39.5613Z" fill="#3D3D3D"/>
<path d="M29.8724 45.2721C31.6443 45.2721 33.0807 43.8357 33.0807 42.0638C33.0807 40.2919 31.6443 38.8555 29.8724 38.8555C28.1005 38.8555 26.6641 40.2919 26.6641 42.0638C26.6641 43.8357 28.1005 45.2721 29.8724 45.2721Z" fill="#3D3D3D"/>
<path d="M49.1224 45.2721C50.8943 45.2721 52.3307 43.8357 52.3307 42.0638C52.3307 40.2919 50.8943 38.8555 49.1224 38.8555C47.3505 38.8555 45.9141 40.2919 45.9141 42.0638C45.9141 43.8357 47.3505 45.2721 49.1224 45.2721Z" fill="#3D3D3D"/>
<path d="M58.7483 35.7434C57.9833 31.2329 55.6472 27.1385 52.1534 24.185C48.6597 21.2314 44.2336 19.6092 39.6587 19.6055C29.9375 19.6055 19.4783 27.6584 20.3125 40.2992C24.2696 38.6815 27.7645 36.1091 30.4853 32.8117C33.2061 29.5142 35.068 25.5944 35.905 21.4021C40.1079 29.8401 48.7383 35.6471 58.7483 35.7434Z" fill="#3D3D3D"/>
</g>
<defs>
<clipPath id="clip0_360_1450">
<rect width="77.6978" height="77.6978" fill="white" transform="translate(0.648438)"/>
</clipPath>
</defs>
</svg>
