<svg width="30" height="30" viewBox="0 0 30 30" fill="none" xmlns="http://www.w3.org/2000/svg">
<path d="M25 12.3672C25 18.6084 18.0763 25.1084 15.7513 27.1159C15.5347 27.2788 15.271 27.3669 15 27.3669C14.729 27.3669 14.4653 27.2788 14.2488 27.1159C11.9238 25.1084 5 18.6084 5 12.3672C5 9.71502 6.05357 7.17148 7.92893 5.29612C9.8043 3.42076 12.3478 2.36719 15 2.36719C17.6522 2.36719 20.1957 3.42076 22.0711 5.29612C23.9464 7.17148 25 9.71502 25 12.3672Z" stroke="#4F4F4F" stroke-width="1.51111" stroke-linecap="round" stroke-linejoin="round"/>
<path d="M15 16.25C17.0711 16.25 18.75 14.5711 18.75 12.5C18.75 10.4289 17.0711 8.75 15 8.75C12.9289 8.75 11.25 10.4289 11.25 12.5C11.25 14.5711 12.9289 16.25 15 16.25Z" stroke="#4F4F4F" stroke-width="1.51111" stroke-linecap="round" stroke-linejoin="round"/>
</svg>
