<svg width="32" height="31" viewBox="0 0 32 31" fill="none" xmlns="http://www.w3.org/2000/svg">
<rect x="0.859375" width="30.3529" height="30.3529" rx="6" fill="#3C5C39"/>
<path d="M22.3042 10.8669C21.8135 11.0795 21.3065 11.2268 20.7667 11.2922C21.3228 10.965 21.7481 10.4416 21.9444 9.8037C21.421 10.1145 20.8485 10.3271 20.2433 10.458C19.7526 9.93456 19.0492 9.60742 18.2805 9.60742C16.792 9.60742 15.5979 10.8178 15.5979 12.2899C15.5979 12.5026 15.6143 12.6989 15.6634 12.8952C13.4388 12.797 11.476 11.7175 10.1511 10.0981C9.20239 11.7992 10.2656 13.2059 10.9689 13.6803C10.5437 13.6803 10.1184 13.5494 9.75853 13.3531C9.75853 14.678 10.6909 15.774 11.9013 16.0193C11.6396 16.1011 11.0507 16.1502 10.6909 16.0684C11.0344 17.1316 12.0321 17.9167 13.1935 17.9331C12.2775 18.6528 10.9362 19.2253 9.21875 19.0453C10.4128 19.8141 11.8195 20.2557 13.3407 20.2557C18.2805 20.2557 20.963 16.1665 20.963 12.6334C20.963 12.5189 20.963 12.4044 20.9466 12.2899C21.5028 11.881 21.9607 11.4067 22.3042 10.8669Z" fill="#F2F2F2"/>
</svg>
